<svg xmlns="http://www.w3.org/2000/svg" viewBox="0 0 500 500" style="enable-background:new 0 0 500 500" xml:space="preserve"><path style="fill:#fff" d="M0 0h500v500H0z"/><path style="fill:#ff6b00" d="M322.589 297.227H181.66c-9.024 0-16.34-7.316-16.34-16.34V67.792c0-9.024 7.316-16.34 16.34-16.34h140.928c9.024 0 16.34 7.316 16.34 16.34v213.095c0 9.024-7.315 16.34-16.339 16.34z"/><path style="fill:#9092c2" d="M329.186 171.161H179.384v-4.914a8.408 8.408 0 0 1 8.408-8.408h132.985a8.408 8.408 0 0 1 8.408 8.408v4.914z"/><path style="fill:#fff" d="M320.261 216.682H188.309a8.924 8.924 0 0 1-8.924-8.924v-36.597h149.802v36.597a8.926 8.926 0 0 1-8.926 8.924z"/><path style="fill:#9092c2" d="M329.053 237.668H179.252v-4.914a8.408 8.408 0 0 1 8.408-8.408h132.985a8.408 8.408 0 0 1 8.408 8.408v4.914z"/><path style="fill:#fff" d="M320.129 283.19H188.176a8.924 8.924 0 0 1-8.924-8.924v-36.597h149.801v36.597a8.924 8.924 0 0 1-8.924 8.924z"/><path style="fill:#ff6b00" d="M187.92 244.739h133.413v2.601H187.92zM187.92 252.072h133.413v2.601H187.92zM187.92 259.406h133.413v2.6H187.92zM187.92 266.739h133.413v2.601H187.92z"/><path style="fill:#fff" d="M245.151 146.062h-57.792a3.786 3.786 0 0 1-3.786-3.786V76.843a3.785 3.785 0 0 1 3.786-3.785h57.792a3.786 3.786 0 0 1 3.786 3.785v65.434a3.786 3.786 0 0 1-3.786 3.785z"/><path style="fill:#ce6b4c" d="M239.559 116.276c-1.127-.805-14.571-5.665-14.571-5.665l-8.733 3.408-8.733-3.408s-13.444 4.86-14.571 5.665c-1.127.805 2.093 29.785 2.093 29.785h42.421c.001.001 3.221-28.98 2.094-29.785z"/><path style="fill:#f28f8f" d="m222.005 100.713-5.466.644-5.466-.644s.345 6.655-1.323 10.036l6.789 3.381 6.789-3.381c-1.669-3.381-1.323-10.036-1.323-10.036z"/><path style="fill:#ffb2ae" d="M228.429 91.97c-.26-2.48-2.073-2.083-2.659-1.886v-4.527h-18.164v4.527c-.586-.196-2.399-.594-2.659 1.886-.284 2.706 1.724 3.925 2.659 4.342v.08c0 5.171 4.037 11.031 9.082 11.031 4.835 0 9.082-5.86 9.082-11.031v-.08c.935-.418 2.943-1.637 2.659-4.342z"/><path style="fill:#686da4" d="M230.815 83.202c-.841.042-2.359-.294-2.359-.294 1.173-.294 1.518-2.397 1.518-2.397-2.439.673-13.287-3.069-18.417-2.145-5.13.925-4.667 3.406-4.667 3.406-5.214 1.976-1.586 8.962-1.586 8.962.726-1.213 2.301-.651 2.301-.651l.799 3.757s1.443-2.465.869-4.848l-.002-.007c1.538-1.484 1.698-3.428 1.698-3.428l12.783.042c-.153 1.183.401 2.348.967 3.195-.106.151-.202.376-.28.702-.575 2.384.869 4.848.869 4.848l1.18-4.389c.936-.038 1.376.491 1.376.491 1.715-1.543 1.481-4.89 1.481-4.89 1.428-.504 1.47-2.354 1.47-2.354z"/><path style="fill:#e9ab72" d="m210.815 106.777 5.724 7.353-4.106 3.837-4.91-7.356zM222.262 106.777l-5.723 7.353 4.106 3.837 4.91-7.356zM192.952 116.276s-4.991 3.243-4.991 12.06l-1.288 17.726h8.372l-2.093-29.786zM239.321 116.276s4.991 3.243 4.991 12.06l1.288 17.726h-8.372l2.093-29.786z"/><path style="fill:#fff" d="m262 97.399 1.951 3.952 4.362.634-3.157 3.077.745 4.344-3.901-2.051-3.901 2.051.745-4.344-3.157-3.077 4.362-.634zM276.833 97.399l1.951 3.952 4.362.634-3.156 3.077.745 4.344-3.902-2.051-3.901 2.051.745-4.344-3.156-3.077 4.362-.634zM291.667 97.399l1.95 3.952 4.362.634-3.156 3.077.745 4.344-3.901-2.051-3.902 2.051.745-4.344-3.156-3.077 4.362-.634zM306.5 97.399l1.951 3.952 4.362.634-3.157 3.077.745 4.344-3.901-2.051-3.901 2.051.745-4.344-3.157-3.077 4.362-.634zM321.333 97.399l1.951 3.952 4.362.634-3.156 3.077.745 4.344-3.902-2.051-3.901 2.051.745-4.344-3.156-3.077 4.362-.634z"/><path style="fill:#e6e6e7" d="M322.685 147.471h-61.619a4.07 4.07 0 0 1-4.065-4.065v-26.971a4.07 4.07 0 0 1 4.065-4.066h61.619a4.07 4.07 0 0 1 4.065 4.066v26.971a4.07 4.07 0 0 1-4.065 4.065zm-61.62-33.101a2.068 2.068 0 0 0-2.065 2.066v26.971c0 1.139.927 2.065 2.065 2.065h61.619a2.068 2.068 0 0 0 2.065-2.065v-26.971a2.068 2.068 0 0 0-2.065-2.066h-61.619z"/><path style="fill:#e6e6e7" d="M318.805 122.36h-54.13a.78.78 0 0 1-.779-.779v-.28a.78.78 0 0 1 .779-.779h54.13a.78.78 0 0 1 .779.779v.28a.78.78 0 0 1-.779.779zM318.805 127.735h-54.13a.78.78 0 0 1-.779-.779v-.28a.78.78 0 0 1 .779-.779h54.13a.78.78 0 0 1 .779.779v.28a.78.78 0 0 1-.779.779zM318.805 133.12h-54.13a.78.78 0 0 1-.779-.779v-.28a.78.78 0 0 1 .779-.779h54.13a.78.78 0 0 1 .779.779v.28a.78.78 0 0 1-.779.779zM318.805 138.495h-54.13a.78.78 0 0 1-.779-.779v-.28a.78.78 0 0 1 .779-.779h54.13a.78.78 0 0 1 .779.779v.28a.78.78 0 0 1-.779.779z"/><circle transform="rotate(-76.785 291.665 82.768)" style="fill:#fff" cx="291.667" cy="82.762" r="11.583"/><path style="fill:#e5a872" d="m279.533 82.551 3.857-3.603 4.928 4.77 11.329-12.78 4.153 4.213-14.714 16.85z"/><path style="fill:#ff6b00" d="M187.92 177.817h133.413v2.6H187.92zM187.92 185.15h133.413v2.6H187.92zM187.92 192.483h133.413v2.601H187.92zM187.92 199.817h133.413v2.6H187.92z"/><path style="fill:#575c96" d="M165.32 63.933h173.15v-9.996c0-7.171-5.814-12.985-12.985-12.985h-147.18c-7.171 0-12.985 5.814-12.985 12.985v9.996z"/><path style="fill:#dedefa" d="M137.273 277.882H44.289c-8.094 0-14.656-6.562-14.656-14.656V121.83c0-8.094 6.562-14.656 14.656-14.656h92.984c8.094 0 14.656 6.562 14.656 14.656v141.395c0 8.095-6.562 14.657-14.656 14.657z"/><path style="fill:#ff6b00" d="M142.406 192.192H39.246v-3.384a5.79 5.79 0 0 1 5.79-5.79h91.579a5.79 5.79 0 0 1 5.79 5.79v3.384z"/><path style="fill:#fff" d="M136.26 223.54H45.392a6.146 6.146 0 0 1-6.146-6.146v-25.202h103.159v25.202a6.145 6.145 0 0 1-6.145 6.146z"/><path style="fill:#ff6b00" d="M142.315 237.992H39.155v-3.384a5.79 5.79 0 0 1 5.79-5.79h91.579a5.79 5.79 0 0 1 5.79 5.79v3.384z"/><path style="fill:#fff" d="M136.169 269.34H45.301a6.146 6.146 0 0 1-6.146-6.146v-25.202h103.159v25.202a6.145 6.145 0 0 1-6.145 6.146zM86.839 177.817H42.436a2.909 2.909 0 0 1-2.909-2.908v-50.274a2.91 2.91 0 0 1 2.909-2.909h44.403a2.91 2.91 0 0 1 2.909 2.909v50.274a2.91 2.91 0 0 1-2.909 2.908z"/><path style="fill:#9092c2" d="M82.542 154.932c-.866-.618-11.195-4.353-11.195-4.353l-6.71 2.619-6.709-2.619s-10.329 3.734-11.195 4.353c-.866.618 1.608 22.885 1.608 22.885h32.594c-.001 0 2.473-22.267 1.607-22.885z"/><path style="fill:#c3c6e2" d="m69.055 142.974-4.199.495-4.199-.495s.265 5.113-1.017 7.711l5.216 2.598 5.216-2.598c-1.283-2.598-1.017-7.711-1.017-7.711z"/><path style="fill:#dedff3" d="M73.991 136.256c-.2-1.906-1.593-1.6-2.043-1.449v-3.478H57.992v3.478c-.45-.151-1.843-.457-2.043 1.449-.218 2.079 1.324 3.016 2.043 3.336v.061c0 3.973 3.101 8.475 6.978 8.475 3.715 0 6.978-4.502 6.978-8.475v-.061c.718-.32 2.261-1.257 2.043-3.336z"/><path style="fill:#acaad1" d="m60.458 147.633 4.397 5.65-3.154 2.948-3.773-5.652zM69.253 147.633l-4.398 5.65 3.155 2.948 3.773-5.652zM46.733 154.932s-3.835 2.492-3.835 9.266l-.99 13.619h6.432l-1.607-22.885zM82.359 154.932s3.835 2.492 3.835 9.266l.99 13.619h-6.433l1.608-22.885z"/><path style="fill:#9092c2" d="m57.773 134.94.77 2.219s1.551-3.125.902-5.748c0 0 3.105-.085 5.408 0 2.303.085 5.612 0 5.612 0s-.507 3.93 1.015 5.071c0 0 1.353-2.406 1.395-5.071.042-2.665-1.311-4.399-3.551-5.118-2.241-.719-9.742-1.184-11.551 1.945-1.809 3.129 0 6.702 0 6.702z"/><path style="fill:#ff6b00" d="m96.139 141.397 1.343 2.722 3.004.436-2.173 2.119.513 2.991-2.687-1.412-2.687 1.412.513-2.991-2.173-2.119 3.004-.436zM106.354 141.397l1.343 2.722 3.004.436-2.174 2.119.513 2.991-2.686-1.412-2.687 1.412.513-2.991-2.173-2.119 3.003-.436zM137.929 176.19H95.496a3.114 3.114 0 0 1-3.111-3.111v-18.573a3.114 3.114 0 0 1 3.111-3.111h42.433a3.114 3.114 0 0 1 3.111 3.111v18.573a3.114 3.114 0 0 1-3.111 3.111zm-42.433-22.795c-.613 0-1.111.499-1.111 1.111v18.573c0 .613.498 1.111 1.111 1.111h42.433c.613 0 1.111-.499 1.111-1.111v-18.573c0-.613-.498-1.111-1.111-1.111H95.496z"/><path style="fill:#ff6b00" d="M135.257 158.586H97.981a.536.536 0 0 1-.536-.536v-.193c0-.296.24-.536.536-.536h37.276c.296 0 .536.24.536.536v.193c0 .296-.24.536-.536.536zM135.257 162.288H97.981a.536.536 0 0 1-.536-.536v-.193c0-.296.24-.536.536-.536h37.276c.296 0 .536.24.536.536v.193c0 .295-.24.536-.536.536zM135.257 165.996H97.981a.536.536 0 0 1-.536-.536v-.193c0-.296.24-.536.536-.536h37.276c.296 0 .536.24.536.536v.193c0 .296-.24.536-.536.536zM135.257 169.697H97.981a.536.536 0 0 1-.536-.536v-.193c0-.296.24-.536.536-.536h37.276c.296 0 .536.24.536.536v.193c0 .296-.24.536-.536.536z"/><circle transform="rotate(-80.758 118.433 128.285)" style="fill:#fff" cx="118.439" cy="128.283" r="9.233"/><path style="fill:#ff6b00" d="m129.054 122.088-5.533-4.969-5.082 5.63-5.082-5.63-5.534 4.969 5.564 6.258-5.564 6.164 5.701 5.044 4.915-5.527 4.915 5.527 5.7-5.044-5.564-6.164z"/><path style="fill:#dedefa" d="M462.229 277.882h-92.984c-8.095 0-14.656-6.562-14.656-14.656V121.83c0-8.094 6.562-14.656 14.656-14.656h92.984c8.094 0 14.656 6.562 14.656 14.656v141.395c0 8.095-6.561 14.657-14.656 14.657z"/><path style="fill:#ff6b00" d="M467.362 192.192H364.203v-3.384a5.79 5.79 0 0 1 5.79-5.79h91.579a5.79 5.79 0 0 1 5.79 5.79v3.384z"/><path style="fill:#fff" d="M461.217 223.54h-90.868a6.146 6.146 0 0 1-6.146-6.146v-25.202h103.159v25.202a6.146 6.146 0 0 1-6.145 6.146z"/><path style="fill:#ff6b00" d="M467.271 237.992H364.112v-3.384a5.79 5.79 0 0 1 5.79-5.79h91.579a5.79 5.79 0 0 1 5.79 5.79v3.384z"/><path style="fill:#fff" d="M461.126 269.34h-90.868a6.146 6.146 0 0 1-6.146-6.146v-25.202h103.159v25.202a6.146 6.146 0 0 1-6.145 6.146zM412.013 177.817H367.61a2.909 2.909 0 0 1-2.909-2.908v-50.274a2.91 2.91 0 0 1 2.909-2.909h44.403a2.91 2.91 0 0 1 2.909 2.909v50.274a2.909 2.909 0 0 1-2.909 2.908z"/><path style="fill:#686da4" d="M398.728 132.869c-1.618-5.01-8.033-5.534-8.805-5.579v-.004l-.039.002a1.431 1.431 0 0 0-.039-.002v.004c-.772.045-7.186.569-8.805 5.579-1.723 5.333-1.12 24.452-1.12 24.452s7.766-.387 7.705-9.295c-.051-7.359 1.244-12.325 2.259-13.833 1.015 1.508 2.198 6.65 2.147 14.009-.061 8.907 7.816 9.118 7.816 9.118s.603-19.118-1.119-24.451z"/><path style="fill:#acaad1" d="M405.707 154.121c-.866-.618-9.404-3.542-9.404-3.542l-6.71 2.619-6.71-2.619s-7.96 2.692-8.826 3.311 3.358 23.927 3.358 23.927h25.667c.001 0 3.491-23.077 2.625-23.696z"/><path style="fill:#ceced8" d="m392.188 145.077-2.398-.649-2.446.868s-.031 3.377-2.307 5.706l4.752 2.367 4.753-2.367c-2.011-2.103-2.354-5.925-2.354-5.925z"/><path style="fill:#e6e6e7" d="M398.113 137.857c-.182-1.736-1.451-1.458-1.861-1.32v-3.169h-12.716v3.169c-.41-.137-1.679-.416-1.861 1.32-.199 1.894 1.207 2.747 1.861 3.039v.056c0 3.62 4.006 7.722 6.358 7.722 2.732 0 6.358-4.102 6.358-7.722v-.056c.654-.292 2.059-1.145 1.861-3.039z"/><path style="fill:#9092c2" d="M374.189 153.921s-3.835 2.492-3.835 9.266l-.99 14.63h8.052l-3.227-23.896zM405.566 153.921s3.835 2.492 3.835 9.266l.99 14.63h-7.307l2.482-23.896zM385.809 148.026l-2.925 2.553s-1.91 5.207 1.228 6.54c3.138 1.333 5.7-3.836 5.7-3.836l-4.003-5.257z"/><path style="fill:#9092c2" d="m393.746 147.828 2.948 2.751s1.91 5.207-1.228 6.54c-3.138 1.333-5.7-3.836-5.7-3.836l3.98-5.455z"/><path style="fill:#686da4" d="M395.167 133.911s-1.526 1.448-5.11 1.948c-3.583.5-5.724.406-5.724.406s.209 3.938-1.375 5.396c-1.583 1.458-2.69-4.625-1.303-7.292s11.387-3.833 11.637-3.833 1.625.417 1.625.417 2.667 1.014 3.417 5.257c.75 4.243-1.667 6.094-1.667 6.094s-1.834-4.143-1.5-8.393z"/><path style="fill:#9092c2" d="M394.777 138.218h-3.253c-.554 0-1.004.45-1.004 1.003v.153h-.927v-.043c0-.553-.45-1.003-1.004-1.003h-3.253c-.554 0-1.004.45-1.004 1.003v.774c0 .553.45 1.003 1.004 1.003h3.253c.554 0 1.004-.45 1.004-1.003v-.184h.927v.075c0 .553.45 1.003 1.004 1.003h3.253c.554 0 1.004-.45 1.004-1.003v-.774c0-.554-.45-1.004-1.004-1.004zm-5.683 1.887a.504.504 0 0 1-.504.503h-3.253a.504.504 0 0 1-.504-.503v-.774c0-.277.226-.503.504-.503h3.253c.278 0 .504.226.504.503v.774zm6.187-.109a.504.504 0 0 1-.504.503h-3.253a.504.504 0 0 1-.504-.503v-.774c0-.277.226-.503.504-.503h3.253c.278 0 .504.226.504.503v.774z"/><path style="fill:#ff6b00" d="m421.096 141.397 1.343 2.722 3.004.436-2.174 2.119.513 2.991-2.686-1.412-2.687 1.412.513-2.991-2.173-2.119 3.003-.436zM431.31 141.397l1.344 2.722 3.004.436-2.174 2.119.513 2.991-2.687-1.412-2.686 1.412.513-2.991-2.174-2.119 3.004-.436zM441.525 141.397l1.343 2.722 3.004.436-2.173 2.119.513 2.991-2.687-1.412-2.686 1.412.513-2.991-2.174-2.119 3.004-.436zM462.886 176.19h-42.434a3.114 3.114 0 0 1-3.111-3.111v-18.573a3.114 3.114 0 0 1 3.111-3.111h42.434a3.114 3.114 0 0 1 3.11 3.111v18.573a3.114 3.114 0 0 1-3.11 3.111zm-42.434-22.795c-.612 0-1.111.499-1.111 1.111v18.573c0 .613.499 1.111 1.111 1.111h42.434c.612 0 1.11-.499 1.11-1.111v-18.573c0-.613-.498-1.111-1.11-1.111h-42.434z"/><path style="fill:#ff6b00" d="M460.214 158.586h-37.276a.536.536 0 0 1-.536-.536v-.193c0-.296.24-.536.536-.536h37.276c.296 0 .536.24.536.536v.193c0 .296-.24.536-.536.536zM460.214 162.288h-37.276a.536.536 0 0 1-.536-.536v-.193c0-.296.24-.536.536-.536h37.276c.296 0 .536.24.536.536v.193c0 .295-.24.536-.536.536zM460.214 165.996h-37.276a.536.536 0 0 1-.536-.536v-.193c0-.296.24-.536.536-.536h37.276c.296 0 .536.24.536.536v.193c0 .296-.24.536-.536.536zM460.214 169.697h-37.276a.536.536 0 0 1-.536-.536v-.193c0-.296.24-.536.536-.536h37.276c.296 0 .536.24.536.536v.193c0 .296-.24.536-.536.536z"/><circle transform="rotate(-76.662 441.686 128.286)" style="fill:#fff" cx="441.668" cy="128.283" r="9.233"/><path style="fill:#ff6b00" d="m452.284 122.088-5.534-4.969-5.082 5.63-5.081-5.63-5.534 4.969 5.564 6.258-5.564 6.164 5.701 5.044 4.914-5.527 4.915 5.527 5.701-5.044-5.564-6.164z"/><path style="fill:#26345b" d="M179.403 454.988a1.499 1.499 0 0 1-1.477-1.768l16.724-91.804h13.798l18.601 91.153a1.5 1.5 0 1 1-2.94.6l-18.11-88.753h-8.846l-16.276 89.341a1.5 1.5 0 0 1-1.474 1.231z"/><path style="fill:#26345b" d="M215.661 456.744a1.499 1.499 0 0 1-1.477-1.769l16.724-91.804h13.745l22.719 90.791a1.5 1.5 0 1 1-2.91.728l-22.15-88.52h-8.9l-16.276 89.341a1.502 1.502 0 0 1-1.475 1.233z"/><path style="fill:#ef8a5e" d="M202.42 453.702c-3.92.17-9.67.58-12.42.5-2.75-.08-5.08-.08-5.25-1.25-.1-.71.71-4.02 1.36-6.53.44-1.66.81-2.97.81-2.97l5.08 1.75s1.49 1.38 4.33 2.75c.23.11.49.24.77.39 3.17 1.64 8.91 5.2 5.32 5.36z"/><path style="fill:#ef8a5e" d="M192.486 400.786s-5.481 7.165-5.15 18.332c.331 11.168-1.336 27.334-1.336 27.334h6.486s9.318-44.897 9.583-47c.264-2.103-9.583 1.334-9.583 1.334z"/><path style="fill:#ffa16f" d="M206.5 384.452s3.703.29 5.977 6.645c2.273 6.355-12.475 56.07-12.475 56.07l-5.085-4.799s-.925-19.335 2.583-30.583c3.508-11.248 3.75-11.083 3.75-11.083l5.25-16.25z"/><path style="fill:#ffa16f" d="M211.62 454.782c-.62 1.09-3.74 1.67-7.86 0-4.11-1.66-11.64-3.08-11.26-4.58.28-1.11 1.73-6.28 2.46-8.87.25-.91.42-1.5.42-1.5s2.87-2.5 4.62 2.74c.8 2.4 3.43 4.94 5.98 7.07 3.04 2.55 5.98 4.55 5.64 5.14z"/><path style="fill:#686da4" d="M198.625 359.619h33.5v2.532h-33.5z"/><path style="fill:#686da4" d="M231.458 359.619h8.208v2.532h-8.208z"/><path style="fill:#ef8a5e" d="M168.25 361.452s17.417 1.98 29.25.698l-.221-4.188-28.665-6.802-.364 10.292z"/><path style="fill:#26345b" d="M124.969 456.285a1.499 1.499 0 0 1-1.423-1.973l16.815-50.484h13.482l16.98 50.479a1.5 1.5 0 0 1-2.844.957l-16.293-48.436h-9.163l-16.131 48.432a1.5 1.5 0 0 1-1.423 1.025z"/><path style="fill:#c5c6f4" d="M175.232 362.151h79.435v4.482h-79.435z"/><path style="fill:#ffa16f" d="M161.626 300.885s.405-2.663 2.203-3.352c1.798-.689 1.977 0 1.977 0s.516.87.516 4.058c0 3.189.29 6.378 0 10.262-.29 3.884-1.147 6.32-2.284 6.609-1.137.29-2.413 0-2.413 0l-1.739 4.696-3.827-1.218 5.567-21.055zM174.156 322.775s3.713 10.172 5.157 20.68 5.157 17.941 7.322 18.64c2.166.699 5.292-5.111 1.115-16.767-2.145-5.987-7.793-24.313-7.793-24.313l-5.801 1.76z"/><path style="fill:#686da4" d="M138.594 336.702c1.093 7.311 6.031 28 7.031 32.5v10h25.75l-1.625-16.75-.758-33.368-8.242-3.007-11.625-3.75s-12.25 2.875-10.531 14.375z"/><path style="fill:#686da4" d="M147.313 319.515s10.188 2.125 12.063 3.375 1.875 3.688 1.875 3.688l-15.5-3.188 1.562-3.875zM162.673 332.828s-2.568 5.049.529 10.623c3.097 5.574 12.466 17.182 18.882 19.252 5.167 1.667 7.424-2.049 7.424-2.049-.343-3.951-4.924-4.284-20.191-31.198-1.425-2.511-5.818.623-6.644 3.372z"/><path style="fill:#ce6b4c" d="M145.625 376.937s-5.125 13.515 2.625 23.765 53 0 53 0l5.25-16.25-35.345-7.515h-25.53z"/><path style="fill:#26345b" d="M156.602 291.368s-5.643-2.01-10.204 1.855c-4.561 3.865-2.242 13.528-6.262 18.708-4.02 5.179.32 8.677.32 8.677s.298 5.547 6.792 5.972c6.493.425 10.745-3.672 11.75-8.233 0 0 2.164-.618 2.087-5.489-.077-4.87-.12-11.444 1.237-13.296.754-1.029 3.669-1.508 3.669-1.508s-.809-8.155-9.389-6.686z"/><path style="fill:#ffa16f" d="M175.87 316.859c-1.653-1.377-2.387-2.112-2.984-2.433-.597-.321-1.699-1.056-2.525-.872-.609.135-.821-.326-1.312-.542 0 0-.616-.697-1.764-.329 0 0-1.897 1.836-2.165 3.305s1.671-.111 2.331-1.18l.052.068c-.466.597-.951 1.348-1.073 2.02-.233 1.275 1.298.112 2.027-.867.757.903 1.551 1.905 1.385 2.3-.289.689-1.042 1.148-2.649.643-1.607-.505-2.938-.092-1.377.757 1.561.849 3.259 1.951 5.142 2.272 1.882.321 3.606 1.159 3.606 1.159s5.592-1.671 5.393-2.144c-.2-.474-2.434-2.78-4.087-4.157z"/><path style="fill:#26345b" d="M162.471 406.758h-25.263l-7.927-38.168a1.5 1.5 0 1 1 2.937-.609l7.431 35.777h19.065l-7.968-35.141a1.5 1.5 0 0 1 2.925-.664l8.8 38.805z"/><path style="fill:#c5c6f4" d="M121.25 366.702c4.5 7.25 15.625.667 20 1.583 4.375.917 15.033 4.667 18.517-1.333 3.483-6-4.371-18.315-17.517-20.25-19.25-2.833-25.5 12.75-21 20z"/><path style="fill:#686da4" d="M212.75 334.952 207 359.619h32.667l4.492-23.327-1.826-1.34z"/><path style="fill:#c5c6f4" d="m214.081 336.577-4.768 21.568h27.092l3.725-21.568z"/><path style="fill:#ef8a5e" d="M196.583 358.244s7.083-2.875 8.708-3.292 3.042.333 4.208 1.042c1.167.708 1.708 1.5 2.583 2.083s.167 1.167-.917.958c-1.083-.208-1.75-1.042-1.75-1.042l-1.75-1.038s-1.667 1.038-2.292 1.622.583.542 2.458 1.208c1.875.667 2.708.083 3.25.917.542.833-.583 1.042-3.167 1.042h-2.583s-3.458.98-7.833.407l-.915-3.907z"/><path style="fill:#686da4" d="m237.417 359.619 4.916-24.667 1.826 1.34-4.492 23.327z"/><path style="fill:#c5c6f4" d="M192.742 409.958h-54.985a3.258 3.258 0 0 1-3.258-3.258v-.323a3.258 3.258 0 0 1 3.258-3.258h54.985a3.258 3.258 0 0 1 3.258 3.258v.323a3.258 3.258 0 0 1-3.258 3.258z"/><path style="fill:#25335a" d="M211.62 454.782c-.62 1.09-3.74 1.67-7.86 0-4.11-1.66-11.64-3.08-11.26-4.58.28-1.11 1.73-6.28 2.46-8.87.42.1.99.42 1.66 1.24 1.5 1.82 2.5 5.08 5.19 6.26 1.76.77 3.31.85 4.17.81 3.04 2.55 5.98 4.55 5.64 5.14z"/><path style="fill:#25335a" d="M202.42 453.702c-3.92.17-9.67.58-12.42.5-2.75-.08-5.08-.08-5.25-1.25-.1-.71.71-4.02 1.36-6.53.45-.09 2.27-.33 4.72 1.11 1.88 1.1 4.7 1.08 6.27.81 3.17 1.64 8.91 5.2 5.32 5.36z"/><path style="fill:#e5a872" d="M124.913 285.452H97.58a6.754 6.754 0 0 0-6.754 6.754v11.233a6.754 6.754 0 0 0 6.754 6.754h19.276l8.477 9.853v-9.875c3.533-.218 6.333-3.144 6.333-6.732v-11.233a6.753 6.753 0 0 0-6.753-6.754z"/><circle style="fill:#fff" cx="101.375" cy="297.015" r="2.687"/><circle style="fill:#fff" cx="112.188" cy="297.015" r="2.687"/><circle style="fill:#fff" cx="121.563" cy="297.015" r="2.687"/><path style="fill:#ce6b4c" d="M309.625 293.077s-.25-2.875 3.625-5.125 5.75-2.75 11.5-3.875 13.75-.125 13.75-.125l10.25 6.25s-.375 16.375-3.125 27.125.18 25.912.18 25.912l-33.18 2.963-3-53.125z"/><path style="fill:#232733" d="M325.667 437.619s-.167 10.5 0 14 1.333 4-6.833 4c-8.167 0-14.667 1-17.333-1-2.667-2 10.5-6.333 13.167-9.333s1.5-5.833 1.5-5.833l9.499-1.834zM342.333 439.452s.667 5.583 0 7.292c-.667 1.708-4.5 3.25-6.333 4.083-1.833.833-3.167 2.125-2.167 3.125s18.095 1.333 19.214.667c1.119-.667-2.381-15.167-2.381-15.167h-8.333z"/><path style="fill:#ce6b4c" d="M348.75 290.202s9.5 25.75 10.75 36.25-14.5 23.834-14.5 23.834l-4.895-12.333 7.395-11.5-4.75-11 6-25.251z"/><path style="fill:#26345b" d="M325.176 253.99s5.44-.147 9.116 2.058c3.676 2.205 4.484 5.072 4.484 5.072s1.103 1.323 1.323 4.117c.221 2.793-5.734 11.615-5.734 11.615s-6.871.102-9.464-1.456-6.414-13.272-6.414-13.272-2.133-1.592-2.648-3.945l2.079-.367s-2.814-1.323-2.079-3.455l9.337-.367z"/><path style="fill:#ffa16f" d="M334.365 276.852s-6.65-.413-9.464-1.456c0 0 1.745-1.19 2.184-3.249.439-2.058-.733-5.514-2.277-5.44-1.544.073-1.659 2.058-1.659 2.058l-.974-3.684s-.357-2.349-1.944-2.957c-1.586-.608-1.744 0-1.744 0s-.455.767-.455 3.58-.256 5.626 0 9.053c.256 3.427 1.012 5.575 2.014 5.831 1.003.256 3.199.418 3.199.418l.463 3.725 3.376-1.074s5.148-.336 7.353-.336l-.072-6.469z"/><path style="fill:#ce6b4c" d="M312.113 289.452s4 6.125 1.125 15.125c-1.482 4.639-7.548 9.744-13.078 13.601-5.439 3.794-12.842 2.987-17.342-1.885l-13.706-14.841 5.875-6.25 15.25 11.688c.001 0 20.001-18.188 21.876-17.438z"/><path style="fill:#25335a" d="M312.625 344.702v5.583s1.125 47.667 1.375 55.417-.518 38.875-.518 38.875h12.5s4.518-25.625 3.204-34.375c-.763-5.082-1.203-6.926-1.203-11.926s3.414-34.391 3.414-34.391 6.354 39.817 6.354 45.317 3.547 37.542 3.547 37.542h11.75s.453-35.792-1.797-43.292-3.546-53.279-5.685-61.289l-32.941 2.539z"/><path style="fill:#ffa16f" d="M274.389 295.84s-4.412-5.45-5.275-6.825-5.801-5.688-7.051-5.813 1.063 3.5 2.563 4.625c0 0-2.375.875-2.063 2.438 0 0-1.938.625-1.625 2.188 0 0-1.188 1.651-.563 3.388.625 1.737 1.875 2.675 2.5 2.8s1.313 0 1.313 0 1.457 1.438 3.103 1.5l1.822 1.313 5.276-5.614z"/><path style="fill:#ce6b4c" d="M321.298 284.042s3.23-2.202 8.381-2.977c5.15-.775 7.057 0 7.057 0l.772 2.977s-20.952 3.639-16.21 0z"/><path style="fill:#e5a872" d="M353.739 243.04h27.333a6.754 6.754 0 0 1 6.754 6.754v11.233a6.754 6.754 0 0 1-6.754 6.754h-19.276l-8.477 9.853v-9.875c-3.533-.218-6.333-3.144-6.333-6.732v-11.233a6.753 6.753 0 0 1 6.753-6.754z"/><circle style="fill:#fff" cx="357.312" cy="254.673" r="2.688"/><circle style="fill:#fff" cx="368.124" cy="254.673" r="2.688"/><circle style="fill:#fff" cx="377.499" cy="254.673" r="2.688"/><path style="fill:#686da4" d="M481.697 459.048H25.803a2.303 2.303 0 1 1 0-4.606h455.893a2.302 2.302 0 1 1 .001 4.606z"/><path style="fill:#26345b" d="M423.98 445.88h-14.698v-40.87h-3.191v40.871h-15.315c-.881 0-1.721.378-2.305 1.038l-4.188 4.729a1.886 1.886 0 1 0 2.841 2.48l4.517-5.247h14.451v4.155a1.595 1.595 0 1 0 3.19 0v-4.155h12.448l4.493 5.219a1.885 1.885 0 1 0 2.84-2.48l-5.083-5.74z"/><path style="fill:#6670ab" d="m397.621 331.302-2.78 73.708h40.5l6.268-72.088c.662-7.615-5.341-14.162-12.984-14.162h-17.98c-7.007 0-12.76 5.54-13.024 12.542z"/><path style="fill:#acaad1" d="M431.985 407.885h-61.288c-1.853 0-3.356-1.287-3.356-2.875s1.503-2.875 3.356-2.875h61.288c1.854 0 3.356 1.287 3.356 2.875 0 1.587-1.503 2.875-3.356 2.875z"/><path style="fill:#26345b" d="M372.18 402.363h-2.794l2.644-18.678a2.245 2.245 0 0 1 2.222-1.93h21.41v3H374.88l-2.7 17.608zM413.715 402.135h-3l2.803-18.499a2.212 2.212 0 0 1 2.187-1.881h21.456v3h-20.782l-2.664 17.38z"/><path style="fill:#aeacd3" d="M446 454.441s-26.5-23.738-20-29.238 22.25 23.25 22.25 23.25-12.432-30-6.591-36.25 11.091 20 11.091 20 .5-37.5 9.5-39 0 42 0 42 7.75-10.75 14-8.5-10.25 19-10.25 19 8.75-8.5 13.5-6.25-10.75 15.33-10.75 15.33l-22.75-.342z"/><path style="fill:#acaad1" d="M39.155 366.632h73.032v87.809H39.155z"/><path style="fill:#9092c2" d="M46.25 373.786h56.5v22.667h-56.5zM46.25 403.827h56.5v46.454h-56.5z"/><circle style="fill:#acaad1" cx="74.25" cy="384.952" r="3"/><path style="fill:#acaad1" d="M73.25 401.952h3.25v50.5h-3.25z"/><path style="fill:#6670ab" d="M47.833 335.786h9v30.847h-9z"/><circle style="fill:#9092c2" cx="52.188" cy="342.14" r="2.188"/><path style="fill:#9092c2" d="M47.833 345.827h9v4.75h-9z"/><path style="fill:#6670ab" d="M65.833 335.786h9v30.847h-9z"/><circle style="fill:#9092c2" cx="70.188" cy="342.14" r="2.188"/><path style="fill:#9092c2" d="M65.833 345.827h9v4.75h-9z"/><path style="fill:#505c93" d="M56.833 335.786h9v30.847h-9zM74.25 335.786h9v30.847h-9z"/></svg>