<?xml version="1.0" encoding="UTF-8"?>
<svg version="1.1" xmlns="http://www.w3.org/2000/svg" width="607" height="148">
<path d="M0 0 C200.31 0 400.62 0 607 0 C607 48.84 607 97.68 607 148 C406.69 148 206.38 148 0 148 C0 99.16 0 50.32 0 0 Z " fill="#FEFEFE" transform="translate(0,0)"/>
<path d="M0 0 C6.36731238 1.8792415 11.49083787 4.03461676 16 9 C15.35933594 8.80664062 14.71867187 8.61328125 14.05859375 8.4140625 C12.26139872 7.87302912 10.46316319 7.33544357 8.6640625 6.80078125 C6.53946988 6.16215737 4.42420094 5.49253929 2.3125 4.8125 C-3.2980086 3.43633751 -7.76865014 3.46358795 -13 6 C-13 7.65 -13 9.3 -13 11 C-12.01773438 10.67515625 -12.01773438 10.67515625 -11.015625 10.34375 C-2.47005665 7.73662745 6.41569293 5.86959385 14.75 10 C15.8225 10.66 16.895 11.32 18 12 C18 11.34 18 10.68 18 10 C21.16989149 7.3713095 23.41293237 6.09435015 27.5 5.4375 C31.88686322 6.14253159 34.35754329 7.51226175 37 11 C41.58390744 19.31631505 42.47501744 29.15724992 40.48046875 38.41015625 C40.32191406 38.93480469 40.16335937 39.45945313 40 40 C40.7425 40.0825 41.485 40.165 42.25 40.25 C45.67457332 41.18397454 46.89669816 42.14551893 49 45 C50.0930049 48.34330911 50.53287485 50.64649787 49.21875 53.984375 C44.83557608 61.62531332 37.86855435 67.22309391 30 71 C29.34 70.67 28.68 70.34 28 70 C28.88751953 69.34644531 28.88751953 69.34644531 29.79296875 68.6796875 C36.6321528 63.52519642 42.93499332 58.53803476 44.625 49.75 C44.810625 48.38875 44.810625 48.38875 45 47 C43.02 46.34 41.04 45.68 39 45 C39.103125 45.9075 39.20625 46.815 39.3125 47.75 C39.2886633 53.6019096 36.84096785 58.98072181 34 64 C32.14453125 65.71875 32.14453125 65.71875 30.25 67.0625 C27.76185817 68.86186437 27.09194531 69.51619255 26.5078125 72.58984375 C26.41999303 74.51412342 26.33658486 76.43861 26.2578125 78.36328125 C26.00225556 80.97693176 25.65800243 82.49205917 24.25 84.6875 C19.09941822 88.35233703 14.10954148 87.84995999 8 87 C1.77961357 85.21057377 -3.64759601 81.55854652 -9 78 C-8.01 77.67 -7.02 77.34 -6 77 C-7.67828408 76.03375833 -7.67828408 76.03375833 -10 76 C-11.46205417 77.26711362 -12.9223848 78.53656281 -14.359375 79.83203125 C-16 81 -16 81 -19.5625 81.625 C-23.98278235 80.8213123 -25.28584911 79.54347478 -28 76 C-30.51989683 70.87021002 -32.13840238 66.37633277 -32.09765625 60.671875 C-32.09443359 59.87265625 -32.09121094 59.0734375 -32.08789062 58.25 C-32.07951172 57.425 -32.07113281 56.6 -32.0625 55.75 C-32.05798828 54.90953125 -32.05347656 54.0690625 -32.04882812 53.203125 C-32.03707961 51.13538599 -32.01914522 49.06768376 -32 47 C-32.90492187 46.81630859 -32.90492187 46.81630859 -33.828125 46.62890625 C-37.32144137 45.61735241 -38.81289736 43.855384 -41 41 C-41.65951493 36.38339552 -41.56394783 34.17693459 -39.5625 30 C-33.97367104 23.45698073 -28.02578968 18.23847654 -20 15 C-19.34 15.33 -18.68 15.66 -18 16 C-17.92796055 12.180774 -17.92796055 12.180774 -18.3125 9.125 C-17.97813462 5.78134615 -17.25419197 3.63319564 -14.9296875 1.14453125 C-10.38874835 -1.54877881 -5.02146585 -0.75658247 0 0 Z " fill="#FE720D" transform="translate(81,30)"/>
<path d="M0 0 C3.96 0 7.92 0 12 0 C12.33 6.93 12.66 13.86 13 21 C14.32 20.34 15.64 19.68 17 19 C22.87818511 18.16336367 27.83999063 18.98188131 33 22 C37.07497269 25.88718593 40.63257053 30.00929497 41.3359375 35.734375 C41.43617417 43.47264583 40.74133528 49.03296932 35.31640625 54.78515625 C30.85864662 58.84027953 27.54022894 60.13578571 21.5 60.1875 C20.37078125 60.20876953 20.37078125 60.20876953 19.21875 60.23046875 C16.75135827 59.97417278 15.13643744 59.22845153 13 58 C12.67 58.66 12.34 59.32 12 60 C8.04 60 4.08 60 0 60 C0 40.2 0 20.4 0 0 Z " fill="#444444" transform="translate(442,35)"/>
<path d="M0 0 C4.36471018 2.71242383 7.04741103 6.49974906 9.16015625 11.109375 C9.78515625 14.109375 9.78515625 14.109375 9.78515625 21.109375 C0.21515625 21.109375 -9.35484375 21.109375 -19.21484375 21.109375 C-17.73845372 26.16946139 -17.73845372 26.16946139 -14.21484375 28.109375 C-9.79693239 28.74641465 -6.17430602 28.5793157 -2.15234375 26.609375 C-1.51296875 26.114375 -0.87359375 25.619375 -0.21484375 25.109375 C2.09515625 27.089375 4.40515625 29.069375 6.78515625 31.109375 C4.88377093 34.91214564 4.2125995 35.99242475 0.78515625 38.109375 C-5.607603 40.23533912 -14.38251691 40.34822386 -20.80078125 38.2734375 C-25.71367432 35.46875908 -29.41814318 31.4994767 -31.21484375 26.109375 C-32.24065015 19.02269719 -32.51376537 12.20830969 -28.71484375 5.921875 C-21.57088539 -2.9039943 -10.29715254 -4.48253868 0 0 Z " fill="#434343" transform="translate(358.21484375,55.890625)"/>
<path d="M0 0 C4.36471018 2.71242383 7.04741103 6.49974906 9.16015625 11.109375 C9.78515625 14.109375 9.78515625 14.109375 9.78515625 21.109375 C0.21515625 21.109375 -9.35484375 21.109375 -19.21484375 21.109375 C-17.73845372 26.16946139 -17.73845372 26.16946139 -14.21484375 28.109375 C-9.79693239 28.74641465 -6.17430602 28.5793157 -2.15234375 26.609375 C-1.51296875 26.114375 -0.87359375 25.619375 -0.21484375 25.109375 C2.09515625 27.089375 4.40515625 29.069375 6.78515625 31.109375 C4.88377093 34.91214564 4.2125995 35.99242475 0.78515625 38.109375 C-5.607603 40.23533912 -14.38251691 40.34822386 -20.80078125 38.2734375 C-25.71367432 35.46875908 -29.41814318 31.4994767 -31.21484375 26.109375 C-32.24065015 19.02269719 -32.51376537 12.20830969 -28.71484375 5.921875 C-21.57088539 -2.9039943 -10.29715254 -4.48253868 0 0 Z " fill="#434343" transform="translate(313.21484375,55.890625)"/>
<path d="M0 0 C2.54611309 1.78872502 3.59022009 3.01033014 5.375 5.6875 C5.5462914 8.22979597 5.60742934 10.65939481 5.5703125 13.19921875 C5.5674826 13.92744339 5.56465271 14.65566803 5.56173706 15.40596008 C5.55055257 17.72914137 5.52545166 20.05193547 5.5 22.375 C5.48996794 23.9511663 5.48084248 25.52733865 5.47265625 27.10351562 C5.45061896 30.96499267 5.41610141 34.82618071 5.375 38.6875 C1.415 38.6875 -2.545 38.6875 -6.625 38.6875 C-6.955 38.0275 -7.285 37.3675 -7.625 36.6875 C-8.615 37.3475 -9.605 38.0075 -10.625 38.6875 C-13.1484375 38.953125 -13.1484375 38.953125 -16 38.9375 C-16.93585938 38.94265625 -17.87171875 38.9478125 -18.8359375 38.953125 C-22.5682725 38.59766452 -25.46703795 37.63868311 -28.375 35.25 C-31.02257641 31.94052948 -31.0815982 28.10995628 -31.03515625 24.04296875 C-30.30227634 19.83414413 -27.86098115 17.32422538 -24.625 14.6875 C-19.15621641 11.69268994 -12.69881313 12.51059282 -6.625 12.6875 C-7.285 11.3675 -7.945 10.0475 -8.625 8.6875 C-13.75251186 8.4334969 -13.75251186 8.4334969 -18.6875 9.4375 C-22.16360996 9.88603032 -24.76335623 7.50354316 -27.625 5.6875 C-26.16663185 1.84271125 -24.26041701 0.5052085 -20.625 -1.3125 C-13.90902186 -3.39125514 -6.10743261 -3.72486274 0 0 Z " fill="#434343" transform="translate(517.625,56.3125)"/>
<path d="M0 0 C2.13155513 1.62882986 3.27889539 2.93255979 4.65625 5.265625 C4.91255289 7.88707994 5.0069443 10.26088667 4.94921875 12.875 C4.94497391 13.60180969 4.94072906 14.32861938 4.93635559 15.07745361 C4.9196113 17.39056004 4.88196885 19.70278355 4.84375 22.015625 C4.82869758 23.58722697 4.81501015 25.15884264 4.80273438 26.73046875 C4.76972195 30.57585915 4.71797056 34.42059256 4.65625 38.265625 C0.69625 38.265625 -3.26375 38.265625 -7.34375 38.265625 C-7.34375 37.605625 -7.34375 36.945625 -7.34375 36.265625 C-7.88128906 36.58917969 -8.41882813 36.91273437 -8.97265625 37.24609375 C-11.87639949 38.49465551 -14.12653341 38.56619038 -17.28125 38.578125 C-18.30089844 38.59488281 -19.32054687 38.61164063 -20.37109375 38.62890625 C-24.51450149 38.12255024 -27.09202164 36.38786422 -30.15625 33.640625 C-32.02745026 29.89822449 -31.99074567 26.36089431 -31.34375 22.265625 C-29.07275373 17.88584648 -26.43436046 14.28190682 -21.609375 12.6953125 C-18.73639664 12.15043729 -16.01610231 12.1713603 -13.09375 12.203125 C-12.01609375 12.21214844 -10.9384375 12.22117187 -9.828125 12.23046875 C-9.00828125 12.24207031 -8.1884375 12.25367187 -7.34375 12.265625 C-8.00375 10.945625 -8.66375 9.625625 -9.34375 8.265625 C-14.47126186 8.0116219 -14.47126186 8.0116219 -19.40625 9.015625 C-22.88235996 9.46415532 -25.48210623 7.08166816 -28.34375 5.265625 C-26.88538185 1.42083625 -24.97916701 0.0833335 -21.34375 -1.734375 C-14.06807131 -3.96351911 -6.69871317 -3.57643161 0 0 Z " fill="#434343" transform="translate(242.34375,56.734375)"/>
<path d="M0 0 C1.65322266 0.01740234 1.65322266 0.01740234 3.33984375 0.03515625 C4.99693359 0.04869141 4.99693359 0.04869141 6.6875 0.0625 C7.54214844 0.07410156 8.39679687 0.08570313 9.27734375 0.09765625 C7.28761223 6.34186143 5.01457017 12.40456271 2.4765625 18.4453125 C2.11770462 19.30144638 1.75884674 20.15758026 1.38911438 21.03965759 C0.63384013 22.83626146 -0.12341391 24.63203422 -0.88256836 26.42700195 C-2.03178372 29.15215891 -3.16533466 31.88350777 -4.29882812 34.61523438 C-5.03940468 36.37149883 -5.78091047 38.1273718 -6.5234375 39.8828125 C-7.02065056 41.0909536 -7.02065056 41.0909536 -7.52790833 42.32350159 C-10.48068784 49.21932397 -14.22257956 56.00162977 -20.72265625 60.09765625 C-26.1621369 60.61570203 -29.22507553 60.47084179 -33.72265625 57.09765625 C-32.84765625 49.34765625 -32.84765625 49.34765625 -31.72265625 47.09765625 C-28.75265625 47.09765625 -25.78265625 47.09765625 -22.72265625 47.09765625 C-22.01900023 45.54236505 -21.33536247 43.97800798 -20.66015625 42.41015625 C-20.08587891 41.10498047 -20.08587891 41.10498047 -19.5 39.7734375 C-17.98717178 34.56596346 -20.408392 30.15098666 -22.4453125 25.3359375 C-22.71025009 24.70407028 -22.97518768 24.07220306 -23.24815369 23.42118835 C-24.08944074 21.41563382 -24.93669967 19.41268717 -25.78515625 17.41015625 C-26.63678523 15.39675639 -27.48700716 13.3828185 -28.33287048 11.36698914 C-29.09727162 9.54562208 -29.86698893 7.72648888 -30.63696289 5.9074707 C-31.72265625 3.09765625 -31.72265625 3.09765625 -31.72265625 1.09765625 C-27.76265625 1.09765625 -23.80265625 1.09765625 -19.72265625 1.09765625 C-16.67514273 6.97500374 -14.11688506 12.92802425 -11.72265625 19.09765625 C-11.48554932 18.55761963 -11.24844238 18.01758301 -11.00415039 17.46118164 C-9.93355699 15.02644081 -8.85940596 12.59328593 -7.78515625 10.16015625 C-7.41197266 9.31001953 -7.03878906 8.45988281 -6.65429688 7.58398438 C-6.29658203 6.77509766 -5.93886719 5.96621094 -5.5703125 5.1328125 C-5.24039307 4.38394775 -4.91047363 3.63508301 -4.57055664 2.86352539 C-3.25029639 0.11390189 -3.21974262 0.11548575 0 0 Z " fill="#444444" transform="translate(560.72265625,53.90234375)"/>
<path d="M0 0 C2.5 2.6875 2.5 2.6875 4 5 C1.36 7.31 -1.28 9.62 -4 12 C-4.66 11.34 -5.32 10.68 -6 10 C-10.15562097 7.22958602 -12.06667872 7.29523982 -17 8 C-19.63177453 10.10541962 -20.75265368 11.58984166 -21.33984375 14.9375 C-21.55310161 19.44150604 -20.78086575 22.3292572 -18 26 C-16.42077594 27.57922406 -14.80556126 27.207659 -12.625 27.25 C-11.83351562 27.27578125 -11.04203125 27.3015625 -10.2265625 27.328125 C-7.52975122 26.93070018 -6.69270985 26.07493465 -5 24 C-1.56247993 25.5277867 1.18953688 27.50181056 4 30 C4 30.66 4 31.32 4 32 C2.35546875 33.25390625 2.35546875 33.25390625 0.1875 34.5625 C-0.52019531 34.99691406 -1.22789062 35.43132812 -1.95703125 35.87890625 C-7.56939023 38.95872848 -13.77933725 38.6544196 -20 38 C-26.23039104 35.64651373 -30.50617487 31.28641528 -33.25 25.25 C-34.89245354 18.13270135 -34.51840305 12.5341771 -31 6 C-24.11355087 -4.96730788 -10.74602786 -5.46727733 0 0 Z " fill="#434343" transform="translate(204,57)"/>
<path d="M0 0 C3.96 0 7.92 0 12 0 C12.33 0.66 12.66 1.32 13 2 C13.99 1.34 14.98 0.68 16 0 C18.26171875 -0.1953125 18.26171875 -0.1953125 20.6875 -0.125 C21.89986328 -0.09792969 21.89986328 -0.09792969 23.13671875 -0.0703125 C24.05904297 -0.03550781 24.05904297 -0.03550781 25 0 C26.07174763 3.65188082 25.76411467 6.26432828 25 10 C24.38511719 9.96519531 23.77023437 9.93039063 23.13671875 9.89453125 C21.92435547 9.85392578 21.92435547 9.85392578 20.6875 9.8125 C19.88699219 9.77769531 19.08648437 9.74289063 18.26171875 9.70703125 C15.98842761 9.82519314 15.98842761 9.82519314 14.390625 11.1171875 C12.36956754 13.85356305 12.56462919 16.04338987 12.48828125 19.41796875 C12.45283203 20.67158203 12.41738281 21.92519531 12.38085938 23.21679688 C12.34702148 25.18229492 12.34702148 25.18229492 12.3125 27.1875 C12.27932334 28.52282013 12.24483334 29.85810832 12.20898438 31.19335938 C12.12637943 34.46215504 12.05726771 37.73067812 12 41 C8.04 41 4.08 41 0 41 C0 27.47 0 13.94 0 0 Z " fill="#444444" transform="translate(373,54)"/>
<path d="M0 0 C3.96 0 7.92 0 12 0 C12.33 0.66 12.66 1.32 13 2 C13.99 1.34 14.98 0.68 16 0 C18.26171875 -0.1953125 18.26171875 -0.1953125 20.6875 -0.125 C21.89986328 -0.09792969 21.89986328 -0.09792969 23.13671875 -0.0703125 C24.05904297 -0.03550781 24.05904297 -0.03550781 25 0 C26.07174763 3.65188082 25.76411467 6.26432828 25 10 C24.38511719 9.96519531 23.77023437 9.93039063 23.13671875 9.89453125 C21.92435547 9.85392578 21.92435547 9.85392578 20.6875 9.8125 C19.88699219 9.77769531 19.08648437 9.74289063 18.26171875 9.70703125 C15.98842761 9.82519314 15.98842761 9.82519314 14.390625 11.1171875 C12.36956754 13.85356305 12.56462919 16.04338987 12.48828125 19.41796875 C12.45283203 20.67158203 12.41738281 21.92519531 12.38085938 23.21679688 C12.34702148 25.18229492 12.34702148 25.18229492 12.3125 27.1875 C12.27932334 28.52282013 12.24483334 29.85810832 12.20898438 31.19335938 C12.12637943 34.46215504 12.05726771 37.73067812 12 41 C8.04 41 4.08 41 0 41 C0 27.47 0 13.94 0 0 Z " fill="#464646" transform="translate(255,54)"/>
<path d="M0 0 C3.10543083 2.64291986 4.63520063 4.20800307 5.4453125 8.1875 C5.71764998 13.5616262 4.55736871 16.81486034 1 21 C-2.12860495 22.56430248 -4.55602925 22.35627284 -8 22 C-11.74790543 18.25209457 -13.16402365 15.39980144 -13.3125 10.1875 C-13.28566106 6.47299012 -13.12204095 5.19933355 -11.125 1.9375 C-7.28036801 -1.56789975 -5.01830187 -1.27583946 0 0 Z " fill="#F9F9F9" transform="translate(466,64)"/>
<path d="M0 0 C10.56 0 21.12 0 32 0 C32 3.3 32 6.6 32 10 C21.44 10 10.88 10 0 10 C0 6.7 0 3.4 0 0 Z " fill="#414141" transform="translate(402,68)"/>
<path d="M0 0 C0.66 0 1.32 0 2 0 C3.638596 1.94526901 5.11087531 3.85854866 6.5625 5.9375 C7.17919556 6.8186145 7.17919556 6.8186145 7.80834961 7.7175293 C10.9982843 12.50994706 12.09881939 16.16965581 12 22 C8.65951897 24.22698735 7.46714419 24.2711921 3.5625 24.25 C2.61503906 24.25515625 1.66757813 24.2603125 0.69140625 24.265625 C-2.02552453 23.99748089 -3.67465583 23.38531142 -6 22 C-5.52050382 14.08004587 -4.47156852 6.70735278 0 0 Z " fill="#FEFAF6" transform="translate(103,45)"/>
<path d="M0 0 C0.89203125 0.00902344 1.7840625 0.01804687 2.703125 0.02734375 C3.37859375 0.03894531 4.0540625 0.05054687 4.75 0.0625 C3.50343779 7.65026999 -0.00324822 15.37743617 -6.25 20.0625 C-8.75 20.8125 -8.75 20.8125 -11.25 20.0625 C-15.88882705 15.73640286 -16.92646403 11.2096834 -17.25 5.0625 C-16.00264433 4.4115741 -14.75198168 3.76698331 -13.5 3.125 C-12.80390625 2.76535156 -12.1078125 2.40570313 -11.390625 2.03515625 C-7.51606486 0.27463531 -4.24202098 -0.05581607 0 0 Z " fill="#FEFAF7" transform="translate(114.25,74.9375)"/>
<path d="M0 0 C2.4375 1.75 2.4375 1.75 3.5 3.5625 C3.36025599 8.45354048 0.56050627 11.79880413 -2.75 15.125 C-3.678125 15.99125 -4.60625 16.8575 -5.5625 17.75 C-8.90329177 16.26604921 -11.39256344 14.35554454 -14.125 11.9375 C-14.88941406 11.27105469 -15.65382813 10.60460937 -16.44140625 9.91796875 C-19.02100212 7.28136523 -21.5625 4.58308018 -21.5625 0.75 C-14.25364363 -1.41558707 -7.34158374 -2.57599429 0 0 Z " fill="#FEF9F6" transform="translate(91.5625,42.25)"/>
<path d="M0 0 C4.40224762 1.41727037 6.99422996 3.56160387 10.25 6.8125 C11.55710937 8.09060547 11.55710937 8.09060547 12.890625 9.39453125 C15.06195155 12.07652164 15.68375021 13.61247826 16 17 C8.95366148 18.82682851 2.64494172 20.25916169 -4.4375 17.8125 C-7 16 -7 16 -8.0625 13.6875 C-7.94618659 8.68602353 -5.6499549 5.69530059 -2.3125 2.125 C-1.1678125 1.073125 -1.1678125 1.073125 0 0 Z " fill="#FEFBF8" transform="translate(84,87)"/>
<path d="M0 0 C3.68428068 0.72240798 4.03629576 1.20303392 6.0625 4.1875 C8.2078552 8.11600758 9.07033301 11.12255164 8.1875 15.625 C3.66692242 19.85392741 -3.85257691 20.73778413 -9.875 20.75 C-10.844375 20.70875 -11.81375 20.6675 -12.8125 20.625 C-11.8914857 12.87577625 -8.72783251 1.93951833 0 0 Z " fill="#FEFBF8" transform="translate(64.8125,51.375)"/>
<path d="M0 0 C1.91635217 -0.05423638 3.83314925 -0.09289963 5.75 -0.125 C7.35101563 -0.15980469 7.35101563 -0.15980469 8.984375 -0.1953125 C11.92470106 -0.00487687 13.52361878 0.47329896 16 2 C16.41702364 8.25535455 15.38744533 14.18282911 13 20 C10.890625 22.33203125 10.890625 22.33203125 9 24 C7.70376621 22.42040347 6.41318673 20.83616587 5.125 19.25 C4.04605469 17.92742187 4.04605469 17.92742187 2.9453125 16.578125 C-0.9461271 11.4207954 -1.30752928 8.35560517 -1 2 C-0.67 1.34 -0.34 0.68 0 0 Z " fill="#FEFBF9" transform="translate(57,78)"/>
<path d="M0 0 C0.99 0.495 0.99 0.495 2 1 C2.103125 2.175625 2.20625 3.35125 2.3125 4.5625 C3.25990466 13.4207336 9.78041005 19.19710715 16 25 C14.16380943 26.97947712 13.27192129 27.92128594 10.625 28.6875 C7.50532815 27.87044309 7.1261135 27.23584693 5.375 24.625 C0.92011073 16.64273783 -0.5214782 9.0775835 0 0 Z " fill="#FEF3EA" transform="translate(50,78)"/>
<path d="M0 0 C2.16874252 0.50603992 3.99967627 0.99983813 6 2 C6.62508694 7.00069551 5.4083988 9.8715335 2.6953125 13.91015625 C-1.46227325 19.03529076 -6.71051325 23.10185217 -12 27 C-12.66 26.34 -13.32 25.68 -14 25 C-13.22076172 24.55914062 -13.22076172 24.55914062 -12.42578125 24.109375 C-5.14533244 19.42620275 -2.34249122 12.98109893 -0.4765625 4.66796875 C-0.14102629 2.61825552 -0.14102629 2.61825552 0 0 Z " fill="#FEF1E8" transform="translate(120,75)"/>
<path d="M0 0 C-0.66 0.66 -1.32 1.32 -2 2 C-2.70382813 1.67515625 -3.40765625 1.3503125 -4.1328125 1.015625 C-11.26248408 -1.50987175 -18.98265556 -0.33911481 -26 2 C-27.32 2 -28.64 2 -30 2 C-30.3125 -0.3125 -30.3125 -0.3125 -30 -3 C-21.63940469 -10.34718982 -8.77728566 -3.62185394 0 0 Z " fill="#FEF0E5" transform="translate(98,39)"/>
<path d="M0 0 C2.6875 -0.375 2.6875 -0.375 6 0 C10.95508153 4.37890926 12.87213684 9.55506768 14 16 C14.21784717 20.01596513 14.18632784 23.98359998 14 28 C13.67 28 13.34 28 13 28 C12.92523438 27.29875 12.85046875 26.5975 12.7734375 25.875 C11.77264482 18.65359398 9.82584646 14.39226036 5 9 C4.43023437 8.32453125 3.86046875 7.6490625 3.2734375 6.953125 C1.86697926 5.28670528 0.43594468 3.64107963 -1 2 C-0.67 1.34 -0.34 0.68 0 0 Z " fill="#FEF3EB" transform="translate(106,41)"/>
<path d="M0 0 C0.66 0.33 1.32 0.66 2 1 C1.38511719 1.87011719 1.38511719 1.87011719 0.7578125 2.7578125 C-3.86236212 9.45596039 -6.02294666 14.85788881 -7 23 C-11.875 21.125 -11.875 21.125 -13 20 C-12.61668269 13.48360577 -10.69887473 9.54922393 -5.95703125 5.0703125 C-3.99849567 3.34402804 -2.01829303 1.65578408 0 0 Z " fill="#FEF2E9" transform="translate(57,49)"/>
<path d="M0 0 C0.1875 2.875 0.1875 2.875 0 6 C-4.49776047 8.99850698 -8.72378098 8.46029515 -14 8 C-22.86746988 6.13253012 -22.86746988 6.13253012 -26 3 C-24.53240234 3.05220703 -24.53240234 3.05220703 -23.03515625 3.10546875 C-14.99248307 3.27154165 -7.44739224 0 0 0 Z " fill="#FEF6F1" transform="translate(102,105)"/>
<path d="M0 0 C0.90492188 0.02320312 1.80984375 0.04640625 2.7421875 0.0703125 C4.10730469 0.09738281 4.10730469 0.09738281 5.5 0.125 C6.19867188 0.14820312 6.89734375 0.17140625 7.6171875 0.1953125 C7.36157427 2.5384338 7.02447978 4.87374653 6.6171875 7.1953125 C3.36415706 8.82182772 0.22493148 8.30984406 -3.3828125 8.1953125 C-4.3828125 7.1953125 -4.3828125 7.1953125 -4.5703125 4.7578125 C-4.31729437 1.29989801 -3.49111259 0.28615677 0 0 Z " fill="#F9F9F9" transform="translate(227.3828125,77.8046875)"/>
<path d="M0 0 C0.90492188 0.02320312 1.80984375 0.04640625 2.7421875 0.0703125 C4.10730469 0.09738281 4.10730469 0.09738281 5.5 0.125 C6.19867188 0.14820312 6.89734375 0.17140625 7.6171875 0.1953125 C7.7421875 4.96875 7.7421875 4.96875 6.6171875 7.0078125 C3.33721085 8.95529863 0.38264005 8.43824492 -3.3828125 8.1953125 C-4.3828125 7.1953125 -4.3828125 7.1953125 -4.5703125 4.7578125 C-4.31729437 1.29989801 -3.49111259 0.28615677 0 0 Z " fill="#FAFAFA" transform="translate(503.3828125,77.8046875)"/>
<path d="M0 0 C1.17369141 -0.02513672 1.17369141 -0.02513672 2.37109375 -0.05078125 C5.07388797 0.39727555 5.96255607 1.11579242 7.5625 3.3125 C7.5625 4.3025 7.5625 5.2925 7.5625 6.3125 C2.2825 6.3125 -2.9975 6.3125 -8.4375 6.3125 C-6.02852606 1.49455212 -5.26866695 0.02595402 0 0 Z " fill="#ECECEC" transform="translate(347.4375,63.6875)"/>
<path d="M0 0 C1.17369141 -0.02513672 1.17369141 -0.02513672 2.37109375 -0.05078125 C5.07388797 0.39727555 5.96255607 1.11579242 7.5625 3.3125 C7.5625 4.3025 7.5625 5.2925 7.5625 6.3125 C2.2825 6.3125 -2.9975 6.3125 -8.4375 6.3125 C-6.02852606 1.49455212 -5.26866695 0.02595402 0 0 Z " fill="#ECECEC" transform="translate(302.4375,63.6875)"/>
<path d="M0 0 C0.763125 0.20625 1.52625 0.4125 2.3125 0.625 C2.4375 3.5 2.4375 3.5 2.3125 6.625 C1.6525 7.285 0.9925 7.945 0.3125 8.625 C-4.24305556 8.06944444 -4.24305556 8.06944444 -5.6875 6.625 C-5.9375 4.1875 -5.9375 4.1875 -5.6875 1.625 C-2.6875 -0.375 -2.6875 -0.375 0 0 Z " fill="#FEF9F5" transform="translate(86.6875,69.375)"/>
<path d="M0 0 C3.72433382 1.2125738 7.37802806 2.50859979 11 4 C11 4.99 11 5.98 11 7 C6.89188572 5.55007731 3.53144334 3.54592427 0 1 C0 0.67 0 0.34 0 0 Z " fill="#FF8C38" transform="translate(72,107)"/>
<path d="M0 0 C0.33 0.66 0.66 1.32 1 2 C1.66 2 2.32 2 3 2 C2.34 4.64 1.68 7.28 1 10 C0.34 9.34 -0.32 8.68 -1 8 C-0.96712417 5.27130593 -0.43602229 2.7033382 0 0 Z " fill="#FF984D" transform="translate(51,62)"/>
<path d="M0 0 C0.99 0.495 0.99 0.495 2 1 C2.484375 3.1796875 2.484375 3.1796875 2.75 5.875 C2.84796875 6.75929688 2.9459375 7.64359375 3.046875 8.5546875 C3 11 3 11 1 14 C0.06380187 10.84493858 -0.1057123 8.03413498 -0.0625 4.75 C-0.05347656 3.85796875 -0.04445312 2.9659375 -0.03515625 2.046875 C-0.02355469 1.37140625 -0.01195312 0.6959375 0 0 Z " fill="#FED8BC" transform="translate(50,78)"/>
<path d="M0 0 C0 0.66 0 1.32 0 2 C-2.64 2.33 -5.28 2.66 -8 3 C-8.33 2.34 -8.66 1.68 -9 1 C-3.375 -1.125 -3.375 -1.125 0 0 Z " fill="#FE8E3D" transform="translate(78,40)"/>
<path d="M0 0 C3.64553172 1.2808625 5.16671013 2.16671013 8 5 C4.7 4.01 1.4 3.02 -2 2 C-1.34 1.34 -0.68 0.68 0 0 Z " fill="#FF8A35" transform="translate(89,34)"/>
</svg>
