<?xml version="1.0" encoding="UTF-8" standalone="no"?>
<!-- Created with Inkscape (http://www.inkscape.org/) -->

<svg
   version="1.1"
   id="svg2"
   width="510.95999"
   height="512.81335"
   viewBox="0 0 510.95999 512.81335"
   sodipodi:docname="72631761_9764577.eps"
   xmlns:inkscape="http://www.inkscape.org/namespaces/inkscape"
   xmlns:sodipodi="http://sodipodi.sourceforge.net/DTD/sodipodi-0.dtd"
   xmlns="http://www.w3.org/2000/svg"
   xmlns:svg="http://www.w3.org/2000/svg">
  <defs
     id="defs6" />
  <sodipodi:namedview
     id="namedview4"
     pagecolor="#ffffff"
     bordercolor="#000000"
     borderopacity="0.25"
     inkscape:showpageshadow="2"
     inkscape:pageopacity="0.0"
     inkscape:pagecheckerboard="0"
     inkscape:deskcolor="#d1d1d1" />
  <g
     id="g8"
     inkscape:groupmode="layer"
     inkscape:label="ink_ext_XXXXXX"
     transform="matrix(1.3333333,0,0,-1.3333333,0,512.81333)">
    <g
       id="g10"
       transform="scale(0.1)">
      <path
         d="m 2693.49,59.4219 c -3.69,0 -7.37,0.0195 -11.07,0.0586 -451.72,5.2109 -793.64,248.1675 -952.17,395.8785 -135.54,126.301 -244.88,227.121 -354.13,308.082 50.06,44.59 106.99,95.918 134.8,123.09 7.36,7.188 14.32,14.141 20.77,21.149 0.08,0.011 0.17,0.011 0.25,0.011 203.11,6.868 247.35,97.969 247.35,191.099 0,21.43 -2.34,42.97 -5.63,63.62 -17.59,110.39 -109.25,422.8 -306.29,751.62 v 0 l -0.82,126.59 c 24.67,27.95 35.6,60.92 34.76,93.81 13.55,-4.02 26.91,-7.8 39.6,-11.15 102.43,-27.02 154.3,-44.49 194.16,-44.5 16.59,0 31.09,3.03 46.31,9.66 50.9,22.18 212.05,134.62 244.1,159.43 15.24,12.01 37.56,24.62 68.94,24.62 4.04,0 8.23,-0.21 12.58,-0.65 14.93,-1.54 31.79,-2.11 41.67,-2.63 1.48,-0.08 3.11,-0.12 4.86,-0.12 12.36,0 30.44,1.83 40.79,3.55 24.96,4.15 24.97,2.3 62.58,22.43 0.49,0.26 1.14,0.63 1.92,1.08 l 234.59,-842.69 c 0.69,-2.49 1.54,-4.81 2.54,-6.97 1.82,-3.99 4.15,-7.4 6.88,-10.21 2.06,-2.12 4.33,-3.89 6.77,-5.29 2.09,-1.19 12.21,-7.03 26.73,-15.41 20.71,-11.97 50.39,-29.1 78.44,-45.3 39.42,-22.78 75.64,-43.72 79.29,-45.86 4.44,-2.63 9.46,-4.01 14.76,-4.01 4.01,0 8.19,0.79 12.4,2.43 v 0.01 h 0.01 c 0.75,0.29 1.49,0.61 2.24,0.95 1.16,0.54 2.33,1.15 3.5,1.82 v 0 l 340.05,196.33 c 20.71,11.95 33.44,40.92 28.97,65.91 L 2758.46,3475.19 C 3018.85,3298.42 3236.48,3035.85 3395.2,2773.1 3855.38,2011.28 3935.88,1410.49 3712.75,785.98 3563.14,367.238 3137.79,59.4219 2693.49,59.4219 M 2342.77,329.34 c -0.01,-5.09 2.33,-10.121 6.75,-13.36 2.94,-2.16 6.36,-3.191 9.75,-3.191 5.07,0 10.08,2.34 13.32,6.742 l 189.72,258.957 c 2.15,2.934 3.19,6.344 3.2,9.711 0.01,5.09 -2.33,10.121 -6.75,13.371 -2.94,2.141 -6.35,3.18 -9.74,3.18 -5.07,0 -10.09,-2.328 -13.33,-6.738 L 2345.96,339.051 c -2.14,-2.93 -3.18,-6.34 -3.19,-9.711 m -202.46,225.129 c -0.01,-2.43 0.53,-4.91 1.67,-7.25 2.85,-5.86 8.73,-9.278 14.84,-9.278 2.44,0 4.9,0.539 7.22,1.668 l 324.27,157.93 c 5.86,2.852 9.27,8.711 9.28,14.82 0,2.43 -0.54,4.911 -1.67,7.243 -2.86,5.878 -8.75,9.277 -14.86,9.277 -2.42,0 -4.88,-0.527 -7.21,-1.66 l -324.26,-157.93 c -5.86,-2.848 -9.27,-8.711 -9.28,-14.82 m 737.3,21.23 c 28.08,-17.25 60.03,-26.34 93.85,-26.34 33.23,0 68.27,8.782 103.22,27.25 0.12,0.071 0.25,0.129 0.37,0.2 0.03,0.011 0.05,0.019 0.07,0.031 0.29,0.16 0.57,0.308 0.87,0.461 0,0.008 0.01,0.008 0.02,0.019 0.06,0.032 0.12,0.059 0.19,0.102 0.01,0 0.02,0.008 0.03,0.019 0.05,0.02 0.09,0.039 0.13,0.071 0.03,0.008 0.06,0.027 0.1,0.047 0.04,0.023 0.09,0.05 0.13,0.07 0.03,0.019 0.06,0.031 0.09,0.051 0.73,0.39 1.47,0.789 2.2,1.199 0.01,0 0.02,0.012 0.02,0.012 1.12,0.609 2.23,1.23 3.34,1.871 v 0 c 0.1,0.058 0.2,0.109 0.3,0.168 0.42,0.242 0.84,0.48 1.26,0.718 v 0 c 0.12,0.071 0.24,0.141 0.37,0.211 0.04,0.032 0.09,0.063 0.14,0.09 0.07,0.039 0.15,0.082 0.22,0.129 0.07,0.031 0.12,0.063 0.18,0.102 0.06,0.039 0.13,0.07 0.19,0.109 0.06,0.043 0.13,0.082 0.2,0.121 0.05,0.02 0.1,0.059 0.15,0.09 0.09,0.051 0.16,0.09 0.24,0.129 0.04,0.031 0.07,0.051 0.11,0.07 0.09,0.051 0.18,0.11 0.27,0.16 0.02,0.012 0.04,0.02 0.06,0.039 83.34,49.082 145.13,142.442 170.3,243.891 14.6,58.871 16.86,120.461 3.85,177.711 -16.89,74.27 -56.46,127.91 -107.57,155.62 -36.56,21.01 -150.74,87.34 -181.58,104.92 -26.82,15.28 -56.95,23.32 -88.73,23.32 -36.1,0 -74.34,-10.37 -112.28,-32.28 -132.16,-76.3 -210.93,-263.748 -176.93,-419.92 v -0.012 c 0.03,-0.148 0.07,-0.296 0.1,-0.437 0,-0.02 0.01,-0.039 0.01,-0.063 0.03,-0.136 0.06,-0.257 0.09,-0.398 0.01,-0.031 0.01,-0.059 0.02,-0.102 0.02,-0.109 0.05,-0.226 0.08,-0.339 0.01,-0.047 0.02,-0.098 0.03,-0.149 0.02,-0.109 0.04,-0.211 0.07,-0.32 0.01,-0.051 0.02,-0.11 0.03,-0.16 0.03,-0.102 0.05,-0.211 0.08,-0.309 0.01,-0.062 0.02,-0.109 0.03,-0.172 0.04,-0.14 0.07,-0.289 0.1,-0.429 l -0.02,0.011 c 16.44,-72.179 54.2,-124.832 103.16,-153.179 4.8,-2.75 11.63,-6.672 19.86,-11.411 44.55,-25.722 130.53,-75.269 160.98,-92.992 m -817.88,267.903 c 0,-0.321 0.01,-0.633 0.02,-0.954 0.49,-8.789 7.78,-15.597 16.48,-15.597 l 0.93,0.027 362.67,20.113 c 8.78,0.481 15.57,7.75 15.59,16.43 0,0.32 0,0.641 -0.02,0.957 -0.49,8.781 -7.62,15.594 -16.46,15.594 -0.31,0 -0.63,-0.012 -0.94,-0.031 l -362.68,-20.102 c -8.78,-0.488 -15.57,-7.758 -15.59,-16.437 m -963.52,80.796 c -14.7,6.102 -29.69,12 -45.01,17.704 16.28,-0.524 34.81,-1.161 54.96,-1.883 v 0 c 1.85,-0.071 3.72,-0.129 5.59,-0.199 -5.14,-5.079 -10.33,-10.301 -15.54,-15.622 M 703.203,1070.87 C 500.199,1172.08 256.363,1348.73 129.98,1612.86 22.0273,1838.49 -64.8242,2134.4 65.3555,2622.74 c 94.7965,355.6 289.0705,629.47 592.4685,828.15 290.969,190.54 705.846,279.4 1106.796,279.4 157.03,0 311.9,-13.62 456.4,-40.11 l -260.8,-150.57 c -17.02,-9.83 -28.46,-30.97 -29.74,-51.8 -0.41,-6.43 0.15,-12.83 1.81,-18.88 v 0 l 294.28,-1056.95 c -21.14,-6.06 -45.56,-11.42 -67.75,-11.42 -4.26,0 -8.42,0.19 -12.48,0.62 -7.87,0.83 -23.83,0.44 -29.79,6.39 v 0 c -8.21,8.2 6.24,18.84 12.26,23.39 5.77,4.35 11.25,9.09 16.4,14.15 5.76,5.66 11.21,11.88 14.35,19.33 3.13,7.44 3.69,16.32 -0.17,23.42 -1.57,2.88 -4.05,5.44 -6.96,5.44 -0.94,0 -1.93,-0.27 -2.94,-0.87 -16.55,-9.92 -33.44,-19.26 -50.03,-29.09 -15.74,-9.32 -39.22,-19.88 -53.09,-31.85 -15.96,-13.79 -31.24,-39.28 -60.61,-58.84 -35.32,-23.54 -238.65,-114.57 -238.65,-114.57 0,0 -85.31,36.64 -202.96,80.37 -104.12,38.69 -172.9,59.36 -236.79,59.36 -8.3,0 -16.51,-0.35 -24.71,-1.05 v 0 0 c 0,0 -33.35,-2.63 -61.86,-6.44 -32.88,-4.39 -66.53,-17.65 -118.87,-35.22 -35.91,-12.05 -73.11,-17.35 -102.186,-30.25 -18.386,-8.16 -32.851,-10.93 -44.031,-10.93 -23.828,0 -32.707,12.62 -32.707,12.62 -8.351,-74.86 -50.683,-226.52 3.59,-302.38 38.168,-53.34 69.543,-123.04 70.144,-159.36 0.122,-7.29 0.133,-14.27 0.04,-20.97 -0.012,0.01 0.007,0 -0.008,0.01 -33.09,-100.45 -79.699,-252.82 -36.676,-381.89 22.477,-67.43 92.584,-180.36 154.424,-272.85 l -43.06,-13.84 -10.76,-3.46 c -0.16,-3.17 -0.29,-6.31 -0.4,-9.4 -67.517,-20.23 -135.743,-39.84 -174.282,-42.88 -6.656,-0.52 -12.653,-0.75 -18.086,-0.75 -21.031,0 -33.801,3.47 -45.262,6.94 -11.457,3.48 -21.609,6.95 -37.402,6.95 -6.254,0 -13.399,-0.54 -21.856,-1.85 -28.797,-4.45 -48.855,-29.71 -60.199,-59.94 m 696.167,1876.11 c 0,-3.69 1.36,-7.39 4.09,-10.28 2.95,-3.13 6.93,-4.7 10.91,-4.7 3.69,0 7.4,1.35 10.3,4.09 l 211.32,199.48 c 3.13,2.95 4.71,6.93 4.71,10.92 -0.01,3.69 -1.36,7.39 -4.1,10.28 -2.94,3.12 -6.92,4.7 -10.9,4.7 -3.7,0 -7.4,-1.35 -10.3,-4.09 L 1404.07,2957.9 c -3.13,-2.95 -4.71,-6.93 -4.7,-10.92 m -165.64,91.15 c 0.01,-6.22 3.91,-12.04 10.12,-14.18 1.62,-0.56 3.27,-0.82 4.89,-0.82 6.22,0 12.03,3.9 14.18,10.11 l 110.33,319.85 c 0.56,1.62 0.82,3.27 0.82,4.89 0,6.22 -3.9,12.04 -10.11,14.18 -1.63,0.56 -3.28,0.83 -4.91,0.83 -6.22,0 -12.02,-3.92 -14.16,-10.12 l -110.33,-319.85 c -0.56,-1.62 -0.83,-3.27 -0.83,-4.89 m -242.703,307.59 c 0,-0.76 0.059,-1.52 0.176,-2.28 l 45.927,-297.63 c 1.14,-7.42 7.53,-12.72 14.8,-12.72 l 2.31,0.18 c 7.42,1.15 12.72,7.55 12.71,14.83 0,0.75 -0.06,1.51 -0.17,2.28 l -45.93,297.63 c -1.14,7.4 -7.57,12.72 -14.78,12.72 -0.77,0 -1.55,-0.06 -2.33,-0.18 -7.42,-1.15 -12.724,-7.55 -12.713,-14.83 M 2247.69,2318.59 c 1.4,0.6 2.86,1.22 4.36,1.87 l 0.32,-1.14 c -0.86,-0.16 -1.75,-0.32 -2.69,-0.48 0.27,0.17 0.54,0.34 0.81,0.51 -0.93,-0.25 -1.87,-0.51 -2.8,-0.76"
         style="fill:#fae8f5;fill-opacity:1;fill-rule:nonzero;stroke:none"
         id="path12" />
      <path
         d="M 839.277,0 C 721.441,0 603.676,22.7813 488.555,66.6484 150.004,195.648 -65.6289,633.391 94.1602,867.781 c 41.1248,60.321 95.5938,83.321 156.6208,83.321 110.086,0 241.539,-74.801 354.68,-140.262 2.644,-8.899 6.019,-17.649 9.918,-26.031 29.453,-63.309 75.793,-90.411 95.863,-98.118 4.223,-1.621 8.078,-2.382 11.594,-2.382 18.172,0 27.195,20.351 30.777,47.132 69.43,-31.152 133.215,-50 197.446,-68.461 -0.137,-0.14 -0.278,-0.289 -0.414,-0.429 -22.665,-23.59 -50.477,-25.063 -80.157,-33.762 -10.851,-3.187 -21.836,-6.84 -30.789,-13.75 -16.176,-12.488 -23.207,-33.867 -23.957,-54.301 -0.746,-20.418 3.852,-40.609 6.606,-60.859 3.39,-24.949 3.972,-50.488 -0.856,-75.199 -4.562,-23.36 -14.59,-45.66 -21.152,-68.61 -5.266,-18.422 -9.82,-37.718 -6.516,-56.59 1.949,-11.101 6.559,-21.582 12.078,-31.41 13.899,-24.769 33.989,-45.949 57.719,-61.511 12.457,-8.161 25.926,-12.637 39.008,-19.297 10.191,-5.203 18.832,-9.793 29.234,-9.793 3.746,0 7.719,0.601 12.078,1.972 20.168,6.36 33.051,30.028 27.45,50.418 -3.957,14.403 -11.641,27.352 -13.004,42.442 -1.657,18.347 -0.309,37.859 1.949,56.09 2.777,22.449 6.191,45.05 14.5,66.089 4.816,12.2 11.219,23.7 17.602,35.161 11.462,20.578 21.392,46.461 37.342,63.75 11.93,12.929 24.73,25.191 37.53,37.257 25.21,23.782 51.44,46.461 78.13,68.614 23.2,-9.481 47.09,-20.172 71.86,-32.473 C 1271.23,540.02 1476.65,389.441 1349.44,201.77 1312.96,147.969 1243.36,88.2617 1151.58,55.1289 1048.66,17.9805 943.938,0 839.277,0"
         style="fill:#fae8f5;fill-opacity:1;fill-rule:nonzero;stroke:none"
         id="path14" />
      <path
         d="m 2372.59,319.531 189.72,258.957 c 5.39,7.364 3.8,17.692 -3.55,23.082 -7.35,5.371 -17.67,3.789 -23.07,-3.558 L 2345.96,339.051 c -5.39,-7.36 -3.79,-17.68 3.56,-23.071 2.94,-2.16 6.36,-3.191 9.75,-3.191 5.07,0 10.08,2.34 13.32,6.742 m -208.55,220.078 324.27,157.93 c 8.19,3.992 11.6,13.871 7.61,22.063 -4,8.207 -13.9,11.597 -22.07,7.617 l -324.26,-157.93 c -8.2,-3.988 -11.6,-13.867 -7.61,-22.07 2.85,-5.86 8.73,-9.278 14.84,-9.278 2.44,0 4.9,0.539 7.22,1.668 m -86.88,287.469 362.67,20.113 c 9.1,0.5 16.07,8.289 15.57,17.387 -0.51,9.102 -8.13,16.07 -17.4,15.563 l -362.68,-20.102 c -9.1,-0.5 -16.06,-8.289 -15.57,-17.391 0.49,-8.789 7.78,-15.597 16.48,-15.597 l 0.93,0.027 M 1054.24,3033.27 c 8.18,1.27 13.8,8.93 12.54,17.11 l -45.93,297.63 c -1.26,8.19 -9,13.83 -17.11,12.54 -8.185,-1.27 -13.802,-8.93 -12.537,-17.11 l 45.927,-297.63 c 1.14,-7.42 7.53,-12.72 14.8,-12.72 l 2.31,0.18 m 208.68,-0.03 110.33,319.85 c 2.7,7.83 -1.46,16.37 -9.29,19.07 -7.84,2.73 -16.37,-1.46 -19.07,-9.29 l -110.33,-319.85 c -2.7,-7.82 1.45,-16.37 9.29,-19.07 1.62,-0.56 3.27,-0.82 4.89,-0.82 6.22,0 12.03,3.9 14.18,10.11 M 1414.37,2932 c -3.98,0 -7.96,1.57 -10.91,4.7 -5.69,6.02 -5.41,15.51 0.61,21.2 l 211.33,199.48 c 6.03,5.69 15.52,5.41 21.2,-0.61 5.69,-6.02 5.41,-15.52 -0.61,-21.2 l -211.32,-199.48 c -2.9,-2.74 -6.61,-4.09 -10.3,-4.09"
         style="fill:#E40000;fill-opacity:1;fill-rule:nonzero;stroke:none"
         id="path16" />
      <path
         d="m 2359.27,312.789 c -3.39,0 -6.81,1.031 -9.75,3.191 -4.42,3.239 -6.76,8.27 -6.75,13.36 0.01,3.371 1.05,6.781 3.19,9.711 l 189.73,258.961 c 3.24,4.41 8.26,6.738 13.33,6.738 3.39,0 6.8,-1.039 9.74,-3.18 4.42,-3.25 6.76,-8.281 6.75,-13.371 -0.01,-3.367 -1.05,-6.777 -3.2,-9.711 L 2372.59,319.531 c -3.24,-4.402 -8.25,-6.742 -13.32,-6.742 m -202.45,225.152 c -6.11,0 -11.99,3.418 -14.84,9.278 -1.14,2.34 -1.68,4.82 -1.67,7.25 0.01,6.109 3.42,11.972 9.28,14.82 l 324.26,157.93 c 2.33,1.133 4.79,1.66 7.21,1.66 6.11,0 12,-3.399 14.86,-9.277 1.13,-2.332 1.67,-4.813 1.67,-7.243 -0.01,-6.109 -3.42,-11.968 -9.28,-14.82 l -324.27,-157.93 c -2.32,-1.129 -4.78,-1.668 -7.22,-1.668 m -80.59,289.11 c -8.7,0 -15.99,6.808 -16.48,15.597 -0.01,0.321 -0.02,0.633 -0.02,0.954 0.02,8.679 6.81,15.949 15.59,16.437 L 2438,880.141 c 0.31,0.019 0.63,0.031 0.94,0.031 8.84,0 15.97,-6.813 16.46,-15.594 0.02,-0.316 0.02,-0.637 0.02,-0.957 -0.02,-8.68 -6.81,-15.949 -15.59,-16.43 l -362.67,-20.113 -0.93,-0.027 M 1414.37,2932 c -3.98,0 -7.96,1.57 -10.91,4.7 -2.73,2.89 -4.09,6.59 -4.09,10.28 -0.01,3.99 1.57,7.97 4.7,10.92 l 211.33,199.48 c 2.9,2.74 6.6,4.09 10.3,4.09 3.98,0 7.96,-1.58 10.9,-4.7 2.74,-2.89 4.09,-6.59 4.1,-10.28 0,-3.99 -1.58,-7.97 -4.71,-10.92 l -211.32,-199.48 c -2.9,-2.74 -6.61,-4.09 -10.3,-4.09 m -165.63,91.13 c -1.62,0 -3.27,0.26 -4.89,0.82 -6.21,2.14 -10.11,7.96 -10.12,14.18 0,1.62 0.27,3.27 0.83,4.89 l 110.33,319.85 c 2.14,6.2 7.94,10.12 14.16,10.12 1.63,0 3.28,-0.27 4.91,-0.83 6.21,-2.14 10.11,-7.96 10.11,-14.18 0,-1.62 -0.26,-3.27 -0.82,-4.89 l -110.33,-319.85 c -2.15,-6.21 -7.96,-10.11 -14.18,-10.11 m -196.81,9.96 c -7.27,0 -13.66,5.3 -14.8,12.72 l -45.927,297.63 c -0.117,0.76 -0.176,1.52 -0.176,2.28 -0.011,7.28 5.293,13.68 12.713,14.83 0.78,0.12 1.56,0.18 2.33,0.18 7.21,0 13.64,-5.32 14.78,-12.72 l 45.93,-297.63 c 0.11,-0.77 0.17,-1.53 0.17,-2.28 0.01,-7.28 -5.29,-13.68 -12.71,-14.83 l -2.31,-0.18"
         style="fill:#de9fd4;fill-opacity:1;fill-rule:nonzero;stroke:none"
         id="path18" />
      <path
         d="m 1651.24,2530 c -27.86,39.54 -78.09,56.57 -125.98,63.36 -47.89,6.8 -97.28,5.92 -143.36,20.63 -49.9,15.91 -113.36,74.88 -114.73,119.03 28.92,-11.49 70.34,0.02 78.9,36.34 -16.62,-8.72 -34.04,-2.2 -44.64,6.76 17.08,0.23 29.27,2.65 42.4,13.58 15.53,12.93 18.41,29.03 17.26,45.71 -28.99,-15.13 -62.92,-10.31 -89.15,9.21 -37.1,27.61 -54.96,50.04 -123.16,61.03 -58.06,9.36 -124.37,-1.35 -175.233,-30.39 -46.188,-26.37 -82.25,-75.93 -88.07,-127.78 -24.707,-14.29 -42.161,-52.17 -50.993,-99.09 -13.566,-72.08 3.102,-163.79 49.942,-238.23 46.84,-74.44 120.914,-130.02 203.304,-160.81 82.38,-30.78 172.67,-37.61 259.93,-26.64 -33.4,16.22 -65.16,34.76 -76.16,67.46 59.44,-12.56 120.9,-15.52 181.27,-8.73 63.74,7.18 129.2,26.96 173.91,72.94 44.72,45.98 61.5,123.19 24.56,175.62"
         style="fill:#17282f;fill-opacity:1;fill-rule:nonzero;stroke:none"
         id="path20" />
      <path
         d="m 2025.48,2247.87 c 17.2,13.56 43.42,27.88 81.52,23.97 14.93,-1.54 31.79,-2.11 41.67,-2.63 11.95,-0.64 33.84,1.47 45.65,3.43 24.96,4.15 24.97,2.3 62.58,22.43 4.64,2.48 23.58,13.97 23.08,19.2 -0.41,4.42 -3.67,7.02 -8.04,7.8 -6.24,1.11 -11.59,-1.64 -24.52,-3.59 14.39,6.09 35,15.31 47.29,30.47 1.85,2.28 3.95,6.02 4.25,8.93 0.29,2.75 -0.14,10.67 -4.24,12.84 0,0 7.76,6.44 14.59,11.87 5.57,4.44 17.44,15.59 8.55,21.88 -7.05,4.98 -18.37,2.8 -30.99,-2.09 6.71,5.27 11.43,10.19 11.97,13.92 1.59,11.16 -4.82,17.91 -27.9,10.17 -23.07,-7.74 -80.85,-29.89 -124.6,-25.29 -7.87,0.83 -23.83,0.44 -29.79,6.39 v 0 c -8.21,8.2 6.24,18.84 12.26,23.39 5.77,4.35 11.25,9.09 16.4,14.15 5.76,5.66 11.21,11.88 14.35,19.33 3.13,7.44 3.69,16.32 -0.17,23.42 -2.08,3.82 -5.75,7.06 -9.9,4.57 -16.55,-9.92 -33.44,-19.26 -50.03,-29.09 -15.74,-9.32 -39.22,-19.88 -53.09,-31.85 -15.96,-13.79 -31.24,-39.28 -60.61,-58.84 -35.32,-23.54 -238.65,-114.57 -238.65,-114.57 0,0 -85.31,36.64 -202.96,80.37 -117.64,43.72 -190.18,64.43 -261.5,58.31 l 55.3,-207.96 c 0,0 116.87,-42.81 202.96,-65.52 145.08,-38.27 188.72,-57.39 240.47,-34.84 50.9,22.18 212.05,134.62 244.1,159.43"
         style="fill:#f8a39a;fill-opacity:1;fill-rule:nonzero;stroke:none"
         id="path22" />
      <path
         d="m 2292.77,2372.26 c -2.96,0.39 -6,0.21 -8.9,-0.49 -2.85,-0.7 -5.28,-2.09 -7.93,-3.26 -2.05,-0.9 -4.11,-1.81 -6.17,-2.71 -6.67,-2.93 -13.82,-4.96 -20.77,-7.19 -7.09,-2.27 -14.21,-4.43 -21.39,-6.39 -18.68,-5.08 -38.08,-10.52 -57.32,-12.81 l 0.11,-0.4 c 18.53,1.75 36.43,3.08 54.52,7.83 8.54,2.24 16.99,4.8 25.28,7.82 6.6,2.4 13.09,5.09 19.43,8.12 2.04,0.98 3.99,1.81 5.97,2.93 2.19,1.25 4.41,2.44 6.72,3.43 3.47,1.48 7.16,2.53 10.92,2.62 l -0.47,0.5 m -62.76,7.09 c 19.64,5.17 38.32,11.86 56.03,21.82 l -0.2,0.54 c -17.59,-5.89 -35.23,-12.1 -53.14,-16.97 -18.68,-5.09 -38.09,-10.53 -57.33,-12.82 l 0.12,-0.4 c 18.52,1.75 36.43,3.08 54.52,7.83 m -157.64,-15.99 c -8.46,-2.59 -16.47,-7.19 -22.88,-13.3 -3.21,-3.06 -6.26,-6.63 -8.39,-10.54 -1.11,-2.03 -1.91,-4.22 -2.49,-6.46 -0.67,-2.62 -0.25,-4.55 -0.2,-7.18 0.03,-1.28 1.39,-1.96 2.06,-0.68 7.23,13.66 18.58,26.53 33.73,31.08 18.32,5.51 35.59,-0.28 52.61,-6.95 0.94,-0.36 0.75,1.49 0.36,1.86 -13.92,13.46 -36.5,17.78 -54.8,12.17 m 108.03,-55.42 c 11.92,-1.78 23.99,-1.57 36,-0.18 11.88,1.87 23.89,5.03 34.09,11.59 -11.6,-3.19 -22.97,-5.87 -34.69,-7.22 -11.65,-1.86 -23.49,-2.3 -35.4,-4.19"
         style="fill:#f57f6d;fill-opacity:1;fill-rule:nonzero;stroke:none"
         id="path24" />
      <path
         d="m 987.508,1755.77 c 6.226,28.45 10.004,62.25 9.222,109.03 -0.601,36.32 -31.976,106.02 -70.144,159.36 -54.273,75.86 -11.941,227.52 -3.59,302.38 0,0 19.152,-27.24 76.738,-1.69 29.076,12.9 66.276,18.2 102.186,30.25 52.34,17.57 85.99,30.83 118.87,35.22 28.51,3.81 61.86,6.44 61.86,6.44 0,0 110.42,-84.04 180.13,-165.85 47.24,-55.44 54.07,-133.31 3.77,-190.29 l 0.82,-126.59 43.55,-131.87 c 0,0 -5.36,-67.28 -182.84,-94.91 -177.49,-27.62 -340.572,68.52 -340.572,68.52"
         style="fill:#33535f;fill-opacity:1;fill-rule:nonzero;stroke:none"
         id="path26" />
      <path
         d="m 1158.92,1991.26 c 32.13,-22.78 135.45,-38.19 187.17,32.9 -0.14,-69.14 -144.15,-108.16 -187.17,-32.9"
         style="fill:#273e47;fill-opacity:1;fill-rule:nonzero;stroke:none"
         id="path28" />
      <path
         d="m 622.293,2826.39 c 4.613,33.21 -2.008,61.45 -10.758,85.23 -5.57,15.14 -13.363,31.54 -17.383,41.39 -4.867,11.91 -10.457,34.89 -12.632,47.58 -4.59,26.82 -6.477,26.17 0.683,71.47 0.887,5.59 5.867,28.88 11.36,30.23 4.632,1.14 8.425,-1.25 10.757,-5.42 3.332,-5.94 2.426,-12.35 5.008,-26.16 1.11,16.75 3.192,40.95 14.25,58.78 1.66,2.68 4.723,6.14 7.574,7.47 2.688,1.26 10.879,3.62 14.536,0.23 0,0 3.8,10.15 6.91,19.01 2.539,7.22 9.675,23.21 19.195,16.4 7.547,-5.39 9.336,-17.66 8.82,-32.21 2.992,8.67 6.313,15.21 9.91,17.07 10.778,5.55 19.895,1.43 20.18,-24.74 0.285,-26.17 -1.812,-92.67 18.309,-135.48 3.617,-7.7 8.855,-24.05 17.008,-27.99 v -0.01 c 11.226,-5.44 16.929,12.99 19.425,20.71 2.387,7.39 5.258,14.63 8.582,21.66 3.715,7.84 8.11,15.57 14.563,21.39 6.453,5.81 15.277,9.51 23.848,8.09 4.613,-0.75 9.203,-3.34 8.132,-8.44 -4.226,-20.31 -7.75,-40.75 -11.875,-61.08 -3.91,-19.28 -7.136,-39.52 -14.402,-57.83 -8.363,-21.08 -31.086,-45.81 -33.094,-92.12 -1.398,-32.18 -5.961,-326.76 -5.961,-326.76 0,0 63.379,-64.74 94.098,-95.63 30.719,-30.9 47.695,-46.71 73.66,-72.69 78.414,-81.26 79.674,-254.72 3.59,-302.38 -108.023,113.35 -191.106,194.86 -257.5,264.41 -85.859,89.95 -120.93,118.56 -113.891,178.43 4.336,36.89 31.606,163.36 39.039,205.01 11.821,66.24 22.809,116.6 28.059,154.38"
         style="fill:#f8a39a;fill-opacity:1;fill-rule:nonzero;stroke:none"
         id="path30" />
      <path
         d="m 649.535,3086.48 c -0.195,7.84 -0.66,15.82 -0.039,23.63 0.195,2.41 0.391,4.82 0.582,7.23 0.246,3.1 0.805,6.05 0.504,9.19 -0.309,3.2 -1.199,6.35 -2.644,9.22 l -0.672,0.3 c 1.238,-3.85 1.476,-7.97 1.191,-12.01 -0.191,-2.7 -0.613,-5.38 -1.105,-8.04 -0.45,-2.41 -0.598,-4.68 -0.872,-7.1 -0.835,-7.5 -1.277,-15.04 -1.386,-22.6 -0.137,-9.48 0.25,-18.97 0.984,-28.43 1.563,-20.05 6.535,-38.7 11.293,-58.14 l 0.449,0.03 c -4.465,20.34 -5.793,41.97 -7.222,62.74 -0.551,7.98 -0.868,15.98 -1.063,23.98 z m 39.512,-70.09 c -4.469,20.35 -5.797,41.98 -7.227,62.75 -1.371,19.92 -1.3,40.03 -1.523,59.97 l -0.617,0.01 c -3.864,-21.51 -4.071,-42.84 -2.375,-64.61 1.562,-20.05 6.531,-38.71 11.293,-58.13 z m -4.035,-56.27 -1.762,-1.02 c 12.785,-14.93 24.758,-30.42 25.633,-50.98 0.722,-17 -8.336,-33.06 -19.668,-45.23 -1.063,-1.14 0.121,-2.28 1.426,-1.85 2.683,0.87 4.797,1.13 7.218,2.74 2.071,1.37 4.012,2.95 5.684,4.8 3.219,3.55 5.77,7.9 7.746,12.25 3.938,8.66 5.785,18.42 5.43,27.93 -0.766,20.57 -13.125,41.97 -31.707,51.36 z m -75.879,114.01 c -3.059,-12.68 -2.035,-25.99 0.269,-38.72 2.821,-12.69 6.871,-25.02 12.891,-36.5 -2.293,12.77 -6.023,24.95 -8.246,37.43 -2.77,12.39 -4.059,24.88 -4.914,37.79"
         style="fill:#f57f6d;fill-opacity:1;fill-rule:nonzero;stroke:none"
         id="path32" />
      <path
         d="m 1026.03,2369.57 c -6.07,36.46 -23.22,118.82 -23.22,118.82 -4.158,-11.23 -33.947,-30.12 -72.728,-5.78 -34.406,21.6 -40.105,66.66 -25.586,92.47 16.59,29.49 50.637,33.37 78.258,2.7 23.526,1.06 30.026,22.95 5.875,64.85 -13.668,51.25 39.141,64.47 45.271,137.82 75.76,-14.37 128.12,31.29 184.74,-5.34 15.99,-22.02 46.34,-57.04 61.8,-127.19 19.98,-90.69 12.61,-137.07 -16.83,-166.67 -14.69,-14.77 -32.26,-24.42 -67.71,-32.16 0,0 2.72,-12.57 7.18,-37.37 2.3,-12.78 5.86,-22.16 17.71,-21.4 21.32,-16.17 77.93,-45.5 -11.86,-76.13 -115.82,-39.5 -193.78,-0.55 -209.196,10.66 23.566,10.05 29.266,26.83 26.296,44.72"
         style="fill:#f8a39a;fill-opacity:1;fill-rule:nonzero;stroke:none"
         id="path34" />
      <path
         d="m 1195.9,2449.09 c -63.92,-12.77 -123.01,-5.43 -161.14,31.64 0,0 13.28,-31.59 41.76,-42.54 71.05,-27.32 123.21,-8.32 123.21,-8.32 l -3.83,19.22"
         style="fill:#f57f6d;fill-opacity:1;fill-rule:nonzero;stroke:none"
         id="path36" />
      <path
         d="m 1189.79,2547.57 -65.66,6.54 c -2.59,-18.1 10.02,-34.23 28.15,-36.03 18.13,-1.8 34.93,11.4 37.51,29.49"
         style="fill:#c35363;fill-opacity:1;fill-rule:nonzero;stroke:none"
         id="path38" />
      <path
         d="m 1166.43,2519.8 c -4.46,-1.52 -9.24,-2.21 -14.15,-1.72 -12.64,1.25 -22.45,9.54 -26.45,20.53 16.51,3.2 32.78,-4.64 40.6,-18.81"
         style="fill:#f6879f;fill-opacity:1;fill-rule:nonzero;stroke:none"
         id="path40" />
      <path
         d="m 1075.38,2635.09 c 2.48,-9.53 7.79,5.16 17.39,7.66 9.6,2.5 19.86,-8.15 17.38,1.38 -2.48,9.52 -12.27,15.22 -21.87,12.73 -9.6,-2.5 -15.37,-12.24 -12.9,-21.77"
         style="fill:#17282f;fill-opacity:1;fill-rule:nonzero;stroke:none"
         id="path42" />
      <path
         d="m 1199.7,2666.52 c 2.47,-9.53 7.78,4.19 17.38,6.68 9.6,2.5 19.86,-7.17 17.38,2.35 -2.47,9.53 -12.26,15.23 -21.86,12.74 -9.61,-2.5 -15.38,-12.24 -12.9,-21.77"
         style="fill:#17282f;fill-opacity:1;fill-rule:nonzero;stroke:none"
         id="path44" />
      <path
         d="m 1131.36,2693.6 39.49,-113.88 49.64,36.31 z"
         style="fill:#f57f6d;fill-opacity:1;fill-rule:nonzero;stroke:none"
         id="path46" />
      <path
         d="m 1234.41,2712.28 -42.92,7.43 c 1.65,11.94 12.62,19.96 24.47,17.91 11.85,-2.06 20.11,-13.4 18.45,-25.34"
         style="fill:#17282f;fill-opacity:1;fill-rule:nonzero;stroke:none"
         id="path48" />
      <path
         d="m 1045.43,2665.37 34.83,27.05 c -7.18,9.89 -20.8,11.84 -30.42,4.37 -9.61,-7.48 -11.59,-21.54 -4.41,-31.42"
         style="fill:#17282f;fill-opacity:1;fill-rule:nonzero;stroke:none"
         id="path50" />
      <path
         d="m 1098.48,2606.52 c 0.97,-15.3 -15.16,-28.77 -36.03,-30.1 -20.87,-1.33 -38.58,9.99 -39.55,25.28 -0.98,15.3 15.15,28.77 36.02,30.1 20.87,1.33 38.58,-9.99 39.56,-25.28"
         style="fill:#f6879f;fill-opacity:1;fill-rule:nonzero;stroke:none"
         id="path52" />
      <path
         d="m 1299.8,2672.09 c 5.93,-14.13 -4.9,-32.14 -24.18,-40.23 -19.29,-8.09 -39.73,-3.19 -45.65,10.94 -5.93,14.13 4.9,32.15 24.18,40.23 19.29,8.09 39.73,3.19 45.65,-10.94"
         style="fill:#f6879f;fill-opacity:1;fill-rule:nonzero;stroke:none"
         id="path54" />
      <path
         d="m 722.82,1135.03 c -22.613,-1.94 -22.539,-6.36 -37.004,-37.93 -14.464,-31.57 -5.429,-75.53 -22.328,-97.83 -16.898,-22.301 -67.422,-81.782 -80.629,-110.532 -13.207,-28.75 -31.464,-70.066 15.121,-146.449 46.586,-76.379 99.868,-89.758 113.965,-89.18 14.102,0.571 35.723,45.942 35.723,45.942 L 722.82,1135.03"
         style="fill:#17282f;fill-opacity:1;fill-rule:nonzero;stroke:none"
         id="path56" />
      <path
         d="m 1742.07,1231.78 c -24.34,80.67 -125.76,362.17 -214.4,499.58 l -472.28,-40.47 291.42,-468.15 c -46.4,9.61 -144.97,-19.67 -144.97,-19.67 -85.49,-20.54 -247.434,-78.16 -315.832,-83.55 -32.426,-2.55 -48.922,1.82 -63.348,6.19 -16,4.85 -29.449,9.7 -59.258,5.1 -41.703,-6.44 -65.078,-56.54 -70.207,-102.15 -5.129,-45.621 -51.14,-91.551 -76.773,-124.172 -26.067,-33.168 -19.285,-80.468 -1.043,-119.679 29.453,-63.309 75.793,-90.411 95.863,-98.118 32.949,-12.652 43.469,27.118 44.246,71.52 0.676,38.25 60.961,136.48 120.856,175.82 44.433,5.867 68.469,9.469 111.722,9.578 51.364,0.121 331.444,-12.328 500.334,-16.07 175.13,-3.867 215.67,40.082 247.78,77.621 32.1,37.54 31.67,141.21 5.89,226.62"
         style="fill:#f8a39a;fill-opacity:1;fill-rule:nonzero;stroke:none"
         id="path58" />
      <path
         d="m 1447.47,928.559 c -2.42,0.062 -4.86,0.132 -7.3,0.191 -4.91,0.141 -9.86,0.281 -14.87,0.422 -2.42,0.078 -4.83,0.137 -7.28,0.207 -5.13,0.16 -10.32,0.312 -15.55,0.473 -2.39,0.07 -4.76,0.136 -7.16,0.218 -7.36,0.219 -14.77,0.461 -22.25,0.7 -1.47,0.05 -2.97,0.089 -4.44,0.14 -6.25,0.199 -12.52,0.41 -18.83,0.621 -3.08,0.098 -6.17,0.199 -9.27,0.309 -4.43,0.148 -8.85,0.289 -13.3,0.449 -3.73,0.121 -7.45,0.25 -11.18,0.383 -4.43,0.148 -8.85,0.297 -13.28,0.457 -3.29,0.109 -6.58,0.23 -9.88,0.34 -4.29,0.152 -8.57,0.301 -12.86,0.453 -3.86,0.137 -7.72,0.277 -11.58,0.406 -7.09,0.262 -14.16,0.512 -21.2,0.762 -50.55,1.832 -99.33,3.64 -141.08,5.129 63.4,77.601 89.93,98.901 89.93,98.901 0,0 -31.22,55.21 -86.08,138.21 30.29,9.06 58.84,17.42 82.55,23.45 3.19,0.81 6.29,1.58 9.28,2.3 0,0 98.57,29.27 144.97,19.66 l -291.42,468.15 430.68,36.91 c 0.13,-0.95 0.21,-1.87 0.34,-2.82 l 42.96,3.69 c 7.16,-11.23 14.39,-23.37 21.67,-36.27 1.12,-123.47 -87.91,-202.15 -87.91,-202.15 0,0 77.43,-212.38 107.13,-318.8 37.6,-134.72 27.3,-195.028 -12.97,-242.661 -18.81,-1.23 -39.83,-1.699 -63.25,-1.32 l -0.01,-0.008 c -1.89,0.027 -3.71,0.039 -5.63,0.078 -6.43,0.152 -13.05,0.301 -19.78,0.473 -2.27,0.047 -4.6,0.117 -6.9,0.168 -4.7,0.121 -9.43,0.25 -14.25,0.379"
         style="fill:#f57f6d;fill-opacity:1;fill-rule:nonzero;stroke:none"
         id="path60" />
      <path
         d="m 1467.37,1914.03 c 197.04,-328.82 288.7,-641.23 306.29,-751.62 17.59,-110.4 8.11,-246.371 -242.01,-254.73 -250.12,-8.36 -405.82,19.66 -405.82,19.66 0,0 -74.59,47.148 -65.14,244.46 l 204.2,65.63 -62.48,553.06 c 131.18,3.86 217.17,41.37 264.96,123.54"
         style="fill:#E40000;fill-opacity:1;fill-rule:nonzero;stroke:none"
         id="path62" />
      <path
         d="m 1531.94,907.691 c 12.22,0.418 23.71,1.219 34.81,2.231 18.5,35.316 44.1,64.648 44.61,103.118 1.51,114.22 -129.78,461.8 -129.78,461.8 0,0 53.66,74.52 42.29,155.89 1,4.6 1.89,9.28 2.67,14.07 16.14,98.59 -16.17,172.77 -59.17,269.23 v 0 0 c 197.04,-328.82 288.7,-641.23 306.29,-751.62 3.29,-20.65 5.63,-42.19 5.63,-63.62 0,-93.13 -44.24,-184.231 -247.35,-191.099 m -419.87,32.649 c -19.33,22.531 -52.21,78.41 -52.21,197.78 0,10.71 0.26,21.93 0.83,33.68 l 10.76,3.46 105.12,-138.15 -79.82,-74.84 c 5.46,-9.43 10.77,-16.598 15.33,-21.918 0,-0.012 0,-0.012 -0.01,-0.012"
         style="fill:#E40000;fill-opacity:1;fill-rule:nonzero;stroke:none"
         id="path64" />
      <path
         d="m 1531.69,907.68 v 0 c 0.08,0.011 0.17,0.011 0.25,0.011 -0.08,0 -0.17,0 -0.25,-0.011"
         style="fill:#cfc1cd;fill-opacity:1;fill-rule:nonzero;stroke:none"
         id="path66" />
      <path
         d="m 1531.69,907.68 c 42.4,46.07 62.82,94.52 28.74,227.35 -39.27,153.04 -114.55,352.02 -114.55,352.02 0,0 58.42,53.56 77.99,143.68 11.37,-81.37 -42.29,-155.89 -42.29,-155.89 0,0 131.29,-347.58 129.78,-461.8 -0.51,-38.47 -26.11,-67.802 -44.61,-103.118 -11.1,-1.012 -22.59,-1.813 -34.81,-2.231 -0.08,0 -0.17,0 -0.25,-0.011"
         style="fill:#8d3ea1;fill-opacity:1;fill-rule:nonzero;stroke:none"
         id="path68" />
      <path
         d="m 1071.45,1175.26 v 0 l 43.06,13.84 v 0 l -43.06,-13.84"
         style="fill:#cfc1cd;fill-opacity:1;fill-rule:nonzero;stroke:none"
         id="path70" />
      <path
         d="m 1112.08,940.352 c -4.56,5.32 -9.87,12.488 -15.33,21.918 l 79.82,74.84 -105.12,138.15 43.06,13.84 c 56.52,-84.54 106.12,-151.99 106.12,-151.99 0,0 -51.42,-40.38 -108.55,-96.758"
         style="fill:#8d3ea1;fill-opacity:1;fill-rule:nonzero;stroke:none"
         id="path72" />
      <path
         d="m 768.16,795.41 c -3.101,43.621 -102.562,107.699 -161.301,96.371 -14.578,-22.242 -21.394,-64.179 -9.191,-99.23 22.848,-65.621 88.027,-117.75 128.773,-124.129 57.547,22.848 25.289,80.137 41.719,126.988"
         style="fill:#33535f;fill-opacity:1;fill-rule:nonzero;stroke:none"
         id="path74" />
      <path
         d="m 701.93,1020.63 c 36.847,7.16 74.285,18.28 104.398,41.47 16.809,12.94 45.192,42.7 54.856,56.8 -12.641,2.32 -32.454,9.4 -45.336,14.02 -21.68,7.77 -55.61,24.31 -93.028,2.11 -12.922,-21.1 -26.824,-45.59 -31.172,-94.78 -0.8,-9.05 -1.519,-15.82 -2.847,-21.83 4.429,0.64 8.82,1.38 13.129,2.21"
         style="fill:#33535f;fill-opacity:1;fill-rule:nonzero;stroke:none"
         id="path76" />
      <path
         d="m 816.133,607.32 c -20.957,-9.91 -22.074,-16.558 -25.805,-36.199 -8.426,-44.351 14.336,-101.25 9.758,-130.391 -4.879,-31.039 -28.004,-79.929 -31.488,-113.089 -3.489,-33.172 -3.797,-81.493 48.242,-129.379 53.465,-49.211 123.113,-52.821 136.379,-47.274 13.265,5.551 12.011,48.821 12.011,48.821 L 816.133,607.32"
         style="fill:#17282f;fill-opacity:1;fill-rule:nonzero;stroke:none"
         id="path78" />
      <path
         d="m 1514.72,1730.25 -541.036,-46.36 c -11.598,-78.56 -9.973,-172.19 23.539,-258.96 49.137,-127.21 245.217,-397.61 245.217,-397.61 0,0 -55.63,-11.96 -132.09,-119.691 -53,-74.66 -97.06,-179.879 -159.705,-245.078 -22.665,-23.59 -50.477,-25.063 -80.157,-33.762 -10.851,-3.187 -21.836,-6.84 -30.789,-13.75 -16.176,-12.488 -23.207,-33.867 -23.957,-54.301 -0.746,-20.418 3.852,-40.609 6.606,-60.859 3.39,-24.949 3.972,-50.488 -0.856,-75.199 -4.562,-23.36 -14.59,-45.66 -21.152,-68.61 -5.266,-18.422 -9.82,-37.718 -6.516,-56.59 1.949,-11.101 6.559,-21.582 12.078,-31.41 13.899,-24.769 33.989,-45.949 57.719,-61.511 12.457,-8.161 25.926,-12.637 39.008,-19.297 13.859,-7.071 24.844,-13.012 41.312,-7.821 20.168,6.36 33.051,30.028 27.45,50.418 -3.957,14.403 -11.641,27.352 -13.004,42.442 -1.657,18.347 -0.309,37.859 1.949,56.09 2.777,22.449 6.191,45.05 14.5,66.089 4.816,12.2 11.219,23.7 17.602,35.161 11.462,20.578 21.392,46.461 37.342,63.75 11.93,12.929 24.73,25.191 37.53,37.257 68.4,64.532 144.32,120.903 216.61,180.891 168.1,139.5 189.59,158.461 239.05,215.871 41.22,47.852 52.04,108.03 14.08,244.04 -29.7,106.42 -107.13,318.8 -107.13,318.8 0,0 107.52,94.97 84.8,240"
         style="fill:#f8a39a;fill-opacity:1;fill-rule:nonzero;stroke:none"
         id="path80" />
      <path
         d="m 996.762,1843.84 c -33.09,-100.45 -79.699,-252.82 -36.676,-381.89 43.024,-129.06 260.544,-424.84 260.544,-424.84 0,0 -81.28,-63.821 -152.99,-143.051 32.27,-95.36 103.76,-209.348 215.01,-213.309 0,0 172.57,151.359 228.27,205.781 55.7,54.43 88.78,95.449 49.51,248.499 -39.27,153.04 -114.55,352.02 -114.55,352.02 0,0 64.53,59.16 80.66,157.75 16.14,98.59 -16.17,172.77 -59.17,269.23 -55.55,-79.22 -211.66,-145.42 -470.608,-70.19"
         style="fill:#E40000;fill-opacity:1;fill-rule:nonzero;stroke:none"
         id="path82" />
      <path
         d="m 1270.56,988.969 -70.72,31.121 c 9.47,7.91 20.79,17.02 20.79,17.02 l 49.93,-48.141"
         style="fill:#9b43a7;fill-opacity:1;fill-rule:nonzero;stroke:none"
         id="path84" />
      <path
         d="m 886.488,333.379 c -41.191,7.449 -71.027,3.301 -96.211,-6.449 -4.261,-22.02 4.164,-61.77 19.684,-82.532 42.582,-56.988 112.062,-82.488 152.941,-74.429 46.148,41.633 1.938,75.172 -1.16,123.992 -8.164,14.871 -33.105,31.789 -75.254,39.418"
         style="fill:#33535f;fill-opacity:1;fill-rule:nonzero;stroke:none"
         id="path86" />
      <path
         d="m 820.516,487.02 c 14.82,3.75 28.922,10.05 42.257,17.601 15.973,9.039 30.614,19.879 42.122,34.32 12.679,15.899 20.871,35.18 24.019,55.231 1.902,12.109 2.488,24.469 1.504,36.687 -0.418,5.211 -1.645,10.243 -2.93,15.27 -3.824,-1.277 -8.168,-2.207 -13.254,-2.199 -23.14,0.05 -69.453,-1.391 -98.101,-36.61 -5.641,-25.492 -10.602,-69.101 0.297,-104.968 1.793,-5.903 3.133,-10.821 4.086,-15.332"
         style="fill:#33535f;fill-opacity:1;fill-rule:nonzero;stroke:none"
         id="path88" />
      <path
         d="m 3260.08,1004.5 c -16.47,72.44 -54.53,125.22 -103.83,153.47 -31.69,18.16 -153.33,88.84 -185.32,107.07 -57.29,32.65 -129.67,32.23 -201.01,-8.96 -132.99,-76.78 -211.92,-266.1 -176.28,-422.85 16.39,-72.101 54.18,-124.73 103.15,-153.07 31.85,-18.441 153.11,-88.289 184.42,-106.558 57.54,-33.563 130.6,-33.512 202.59,8.046 132.99,76.782 211.91,266.102 176.28,422.852 m -565.96,319.88 c 9.33,-5.5 21.2,-5.48 32.85,1.24 l 340.05,196.33 c 20.71,11.95 33.44,40.92 28.97,65.91 l -379.22,2120.49 c -2.3,12.83 -8.67,22.21 -17.13,27.12 -9.27,5.39 -176.42,101.95 -184.92,106.85 -9.25,5.32 -20.98,5.31 -32.59,-1.39 l -521.91,-301.32 c -22.27,-12.86 -35,-45.1 -27.88,-70.65 l 561.07,-2015.5 c 2.93,-10.54 8.78,-18.22 16.19,-22.47 9.28,-5.31 177.26,-102.33 184.52,-106.61"
         style="fill:#E40000;fill-opacity:1;fill-rule:nonzero;stroke:none"
         id="path90" />
      <path
         d="m 3074.68,576.609 c 0.12,0.071 0.25,0.129 0.37,0.2 -0.12,-0.071 -0.25,-0.129 -0.37,-0.2 m 0.44,0.231 c 0.29,0.16 0.58,0.308 0.87,0.461 -0.3,-0.153 -0.58,-0.301 -0.87,-0.461 m 0.89,0.48 c 0.06,0.032 0.12,0.059 0.19,0.102 -0.07,-0.043 -0.13,-0.07 -0.19,-0.102 m 0.22,0.121 c 0.04,0.02 0.09,0.039 0.13,0.071 -0.04,-0.032 -0.08,-0.051 -0.13,-0.071 m 0.23,0.118 c 0.04,0.023 0.09,0.05 0.13,0.07 -0.04,-0.02 -0.09,-0.047 -0.13,-0.07 m 0.22,0.121 c 0.73,0.39 1.47,0.789 2.2,1.199 -0.73,-0.41 -1.47,-0.809 -2.2,-1.199 m 2.22,1.211 c 1.12,0.609 2.23,1.23 3.34,1.871 -1.11,-0.641 -2.22,-1.262 -3.34,-1.871 m 3.34,1.871 c 0.1,0.047 0.2,0.109 0.3,0.168 -0.1,-0.059 -0.2,-0.11 -0.3,-0.168 m 1.56,0.886 v 0 c 0.12,0.071 0.24,0.141 0.37,0.211 -0.13,-0.07 -0.25,-0.14 -0.37,-0.211 m 0.51,0.301 c 0.07,0.039 0.15,0.082 0.22,0.129 -0.07,-0.047 -0.15,-0.09 -0.22,-0.129 m 0.4,0.231 c 0.06,0.031 0.13,0.082 0.19,0.109 -0.06,-0.039 -0.13,-0.07 -0.19,-0.109 m 0.39,0.23 c 0.05,0.031 0.1,0.051 0.15,0.09 -0.05,-0.031 -0.1,-0.07 -0.15,-0.09 m 0.39,0.219 c 0.03,0.019 0.08,0.051 0.11,0.07 -0.04,-0.019 -0.07,-0.039 -0.11,-0.07 m 0.38,0.23 c 0.02,0.012 0.04,0.02 0.06,0.039 -0.02,-0.019 -0.04,-0.027 -0.06,-0.039 m -492.34,250.84 c -0.01,0.063 -0.02,0.11 -0.03,0.172 0.01,-0.062 0.02,-0.109 0.03,-0.172 m -0.11,0.481 c -0.01,0.05 -0.02,0.109 -0.03,0.16 0.01,-0.051 0.02,-0.11 0.03,-0.16 m -0.1,0.48 c -0.01,0.051 -0.02,0.102 -0.03,0.149 0.01,-0.047 0.02,-0.098 0.03,-0.149 m -0.11,0.488 c -0.01,0.043 -0.01,0.071 -0.02,0.102 0,-0.031 0.01,-0.07 0.02,-0.102 m -0.11,0.5 c 0,0.024 -0.01,0.043 -0.01,0.063 0,-0.02 0.01,-0.051 0.01,-0.063 m -0.11,0.5 v 0.012 c 0,-0.012 0,0 0,-0.012"
         style="fill:#cfc1cd;fill-opacity:1;fill-rule:nonzero;stroke:none"
         id="path92" />
      <path
         d="m 2877.61,575.699 c -30.45,17.723 -116.43,67.27 -160.98,92.992 43.78,-25.179 127.4,-73.429 159.28,-91.98 v 0 0 c -43.63,27.43 -77.7,74.719 -94.61,138.25 17.15,-64.313 51.89,-111.981 96.31,-139.262 m 206.19,5.949 c 0.12,0.071 0.25,0.141 0.37,0.211 v 0 c -0.13,-0.07 -0.25,-0.14 -0.37,-0.211 m 0.5,0.293 c 0.08,0.047 0.16,0.098 0.23,0.137 v 0 c -0.07,-0.047 -0.15,-0.09 -0.22,-0.129 0,0 0,0 -0.01,-0.008 m 0.41,0.239 c 0.06,0.039 0.13,0.07 0.19,0.109 v 0 c -0.06,-0.027 -0.13,-0.078 -0.19,-0.109 v 0 m 0.38,0.218 c 0.06,0.032 0.11,0.071 0.17,0.102 0,0 0,0 -0.01,0 -0.05,-0.039 -0.1,-0.059 -0.15,-0.09 -0.01,-0.012 -0.01,-0.012 -0.01,-0.012 m 0.39,0.231 c 0.05,0.031 0.08,0.051 0.13,0.07 -0.01,0 -0.01,0 -0.01,0 -0.03,-0.019 -0.08,-0.051 -0.11,-0.07 h -0.01 m 0.38,0.223 c 0.02,0.019 0.06,0.039 0.08,0.046 0,0 0,0 -0.01,0 -0.02,-0.019 -0.04,-0.027 -0.06,-0.039 l -0.01,-0.007 m 0.38,0.226 h 0.01 -0.01 m -114.78,2.012 c -76.62,0 -137.22,57.199 -158.15,149.269 -16.91,74.403 -5.46,156.961 26.49,228.75 135.49,-78.468 265.77,-153.918 354.43,-205.07 -29.33,-61.367 -73.81,-113.98 -128.3,-145.437 -31.61,-18.25 -63.4,-27.512 -94.47,-27.512 M 2778.47,726.441 2593.63,833.27 c -0.03,0.152 -0.06,0.289 -0.1,0.429 -0.01,0.063 -0.02,0.11 -0.03,0.172 -0.03,0.098 -0.05,0.207 -0.08,0.309 -0.01,0.05 -0.02,0.109 -0.03,0.16 -0.02,0.101 -0.05,0.211 -0.07,0.32 -0.01,0.051 -0.02,0.102 -0.03,0.149 -0.03,0.113 -0.06,0.23 -0.08,0.339 -0.01,0.032 -0.02,0.071 -0.02,0.102 -0.03,0.129 -0.06,0.262 -0.09,0.398 0,0.012 -0.01,0.043 -0.01,0.063 -0.03,0.141 -0.07,0.289 -0.1,0.437 0,0.012 0,0 0,0.012 -17.88,82.149 -4.33,172.84 31.56,251.57 59.71,-34.55 122.36,-70.83 184.51,-106.82 -36.25,-79.629 -49.43,-171.609 -30.59,-254.469 v 0"
         style="fill:#E40000;fill-opacity:1;fill-rule:nonzero;stroke:none"
         id="path94" />
      <path
         d="m 2614.77,1370.28 c -28.05,16.2 -57.73,33.33 -78.44,45.3 20.72,-11.96 50.39,-29.1 78.44,-45.3 m -111.94,66 c -2.73,2.81 -5.06,6.22 -6.88,10.21 1.84,-3.98 4.17,-7.4 6.88,-10.21 m -276.26,975.7 -294.28,1056.95 0.06,-0.04 294.22,-1056.91 v 0"
         style="fill:#b1a8b2;fill-opacity:1;fill-rule:nonzero;stroke:none"
         id="path96" />
      <path
         d="m 2247.04,2338.46 -3.83,13.77 v 0 l 3.83,-13.77 m -5,17.96 -6.78,24.36 v 0 l 6.78,-24.36 v 0 m -7.99,28.69 -7.48,26.87 v 0 l 7.49,-26.87 c -0.01,0 -0.01,0 -0.01,0"
         style="fill:#c97d70;fill-opacity:1;fill-rule:nonzero;stroke:none"
         id="path98" />
      <path
         d="m 2243.21,2352.23 -1.17,4.19 v 0 l 1.17,-4.19 v 0 m -7.95,28.55 -1.21,4.33 c 0,0 0,0 0.01,0 l 1.2,-4.33 v 0"
         style="fill:#c26252;fill-opacity:1;fill-rule:nonzero;stroke:none"
         id="path100" />
      <path
         d="m 2692.95,1325.11 c -7.17,4.15 -41.27,23.85 -78.18,45.17 -28.05,16.2 -57.72,33.34 -78.44,45.3 -14.49,8.37 -24.6,14.2 -26.69,15.42 -2.47,1.41 -4.75,3.17 -6.81,5.28 -2.71,2.81 -5.04,6.23 -6.88,10.21 -1,2.17 -1.84,4.51 -2.51,7.02 l -246.4,884.95 -3.83,13.77 -1.17,4.19 -6.78,24.36 -1.2,4.33 -7.49,26.87 -294.22,1056.91 184.8,-106.68 v 0 0 l 561.03,-2015.54 c 1.16,-4.13 2.79,-7.84 4.78,-11.07 2.7,-4.41 6.08,-7.93 9.94,-10.46 0.02,-0.01 0.04,-0.02 0.05,-0.03"
         style="fill:#E40000;fill-opacity:1;fill-rule:nonzero;stroke:none"
         id="path102" />
      <path
         d="m 1932.35,3468.89 -0.06,0.04 c -1.66,6.05 -2.22,12.45 -1.81,18.88 -0.4,-6.42 0.18,-12.83 1.86,-18.85 l 0.01,-0.07"
         style="fill:#cfc1cd;fill-opacity:1;fill-rule:nonzero;stroke:none"
         id="path104" />
      <path
         d="m 2117.15,3362.21 -184.8,106.68 -0.01,0.07 c -1.68,6.02 -2.26,12.43 -1.86,18.85 1.32,20.83 12.78,41.93 29.8,51.76 l 184.74,-106.73 c -22.27,-12.86 -35.01,-45.14 -27.87,-70.63"
         style="fill:#E40000;fill-opacity:1;fill-rule:nonzero;stroke:none"
         id="path106" />
      <path
         d="m 2708.83,1338.27 c -8.76,0 -12.27,9.22 -13.37,13.19 l -561.08,2015.5 c -4.9,17.61 4.45,41.63 19.6,50.38 l 521.92,301.33 c 3.2,1.85 6.38,2.82 9.21,2.82 8.23,0 12.66,-8.41 14.07,-16.29 L 3078.4,1584.71 c 3.12,-17.47 -6.18,-39.13 -20.31,-47.28 l -340.06,-196.34 c -3.19,-1.84 -6.37,-2.82 -9.2,-2.82 z m 262.63,-771.04 c -85.42,0 -152.69,62.52 -175.57,163.168 -33.97,149.422 41.31,330.392 167.8,403.422 34.36,19.84 69.15,29.9 103.4,29.9 85.41,0 152.68,-62.53 175.56,-163.18 33.97,-149.419 -41.29,-330.392 -167.79,-403.419 -34.36,-19.84 -69.15,-29.891 -103.4,-29.891"
         style="fill:#fafaf9;fill-opacity:1;fill-rule:nonzero;stroke:none"
         id="path108" />
      <path
         d="m 3067.09,1181.59 c -36.12,-0.01 -74.39,-10.39 -112.34,-32.3 -132.99,-76.78 -211.92,-266.099 -176.28,-422.849 25.46,-112.011 102.54,-177.082 192.99,-177.082 36.12,0 74.38,10.379 112.34,32.289 132.99,76.782 211.91,266.102 176.28,422.852 -25.47,112.02 -102.53,177.1 -192.99,177.09 M 2685.1,3739.36 c -5.82,0 -12,-1.68 -18.14,-5.22 l -521.91,-301.32 c -22.27,-12.86 -35,-45.1 -27.88,-70.65 l 561.07,-2015.5 c 4.65,-16.73 16.65,-26.26 30.58,-26.26 5.84,0 12.03,1.68 18.15,5.21 l 340.06,196.33 c 20.7,11.95 33.43,40.92 28.96,65.91 l -379.22,2120.49 c -3.49,19.47 -16.37,31.01 -31.67,31.01 m 382,-2557.77 v -35.74 h 0.01 c 76.6,0 137.19,-57.2 158.12,-149.272 32.36,-142.328 -39.1,-314.59 -159.3,-383.976 -31.61,-18.25 -63.4,-27.512 -94.47,-27.512 -76.62,0 -137.22,57.199 -158.15,149.269 -32.35,142.34 39.11,314.591 159.31,383.991 31.6,18.24 63.39,27.5 94.47,27.5 l 0.01,35.74 m -385.39,2519.8 379.1,-2119.82 c 1.97,-11.02 -4.76,-24.69 -11.65,-28.67 l -337.07,-194.61 -560.5,2013.46 c -2.75,9.88 3.08,25.36 11.33,30.12 l 518.79,299.52"
         style="fill:#E40000;fill-opacity:1;fill-rule:nonzero;stroke:none"
         id="path110" />
      <path
         d="m 2716.63,668.691 c -8.23,4.739 -15.06,8.661 -19.86,11.411 -48.96,28.347 -86.72,81 -103.16,153.179 l 0.02,-0.011 c 0,-0.008 0.01,-0.032 0.01,-0.04 v 0 0 c 16.36,-71.96 54.03,-124.519 102.86,-152.91 0.09,-0.05 0.19,-0.109 0.29,-0.16 4.79,-2.781 11.61,-6.719 19.84,-11.469"
         style="fill:#b1a8b2;fill-opacity:1;fill-rule:nonzero;stroke:none"
         id="path112" />
      <path
         d="m 2696.5,680.32 c -48.83,28.391 -86.5,80.95 -102.86,152.91 16.36,-71.96 54.03,-124.519 102.86,-152.91 m -102.86,152.91 c 0,0.008 -0.01,0.032 -0.01,0.04 v 0 c 0,-0.008 0.01,-0.032 0.01,-0.04"
         style="fill:#E40000;fill-opacity:1;fill-rule:nonzero;stroke:none"
         id="path114" />
      <path
         d="m 2875.91,576.711 c -31.88,18.551 -115.5,66.801 -159.28,91.98 -8.23,4.75 -15.05,8.688 -19.84,11.469 -0.1,0.051 -0.2,0.11 -0.29,0.16 -48.83,28.391 -86.5,80.95 -102.86,152.91 v 0 0 c 0,0.008 -0.01,0.032 -0.01,0.04 l 184.84,-106.829 c 0.88,-3.882 1.83,-7.711 2.83,-11.48 16.91,-63.531 50.98,-110.82 94.61,-138.25"
         style="fill:#E40000;fill-opacity:1;fill-rule:nonzero;stroke:none"
         id="path116" />
      <path
         d="m 2781.3,714.961 c -1,3.769 -1.95,7.598 -2.83,11.48 h 0.01 c 0.88,-3.882 1.82,-7.711 2.82,-11.48"
         style="fill:#E40000;fill-opacity:1;fill-rule:nonzero;stroke:none"
         id="path118" />
    </g>
  </g>
</svg>
